<?xml version="1.0" encoding="utf-8"?>
<!-- Generator: Adobe Illustrator 26.0.0, SVG Export Plug-In . SVG Version: 6.00 Build 0)  -->
<svg version="1.1" id="artwork" xmlns="http://www.w3.org/2000/svg" xmlns:xlink="http://www.w3.org/1999/xlink" x="0px" y="0px"
	 viewBox="0 0 16 16" style="enable-background:new 0 0 16 16;" xml:space="preserve">
<g>
	<line style="fill:none;stroke:#FFFFFF;stroke-miterlimit:10;" x1="0" y1="12.4" x2="7.2" y2="12.4"/>
	<line style="fill:none;stroke:#FFFFFF;stroke-miterlimit:10;" x1="3.6" y1="16" x2="3.6" y2="8.8"/>
</g>
<g>
	<line style="fill:none;stroke:#FFFFFF;stroke-miterlimit:10;" x1="14" y1="7.1" x2="14" y2="9.3"/>
	<line style="fill:none;stroke:#FFFFFF;stroke-miterlimit:10;" x1="8" y1="9.3" x2="16" y2="9.3"/>
	<path style="fill:none;stroke:#FFFFFF;stroke-miterlimit:10;" d="M15.5,12v2.7c0,0.4-0.3,0.7-0.7,0.7H8"/>
	<path style="fill:#FFFFFF;" d="M2.1,5.3L2.1,5.3C0.9,5.3,0,4.4,0,3.2V1c0-0.3,0.2-0.5,0.5-0.5h3.6v2.7C4.1,4.4,3.2,5.3,2.1,5.3z"/>
	<path style="fill:#FFFFFF;" d="M13.9,5.3L13.9,5.3c-1.1,0-2.1-0.9-2.1-2.1V1c0-0.3,0.2-0.5,0.5-0.5H16v2.7
		C16,4.4,15.1,5.3,13.9,5.3z"/>
	<path style="fill:#FFFFFF;" d="M8,5.3L8,5.3c-1.1,0-2.1-0.9-2.1-2.1V1c0-0.3,0.2-0.5,0.5-0.5h3.6v2.7C10.1,4.4,9.1,5.3,8,5.3z"/>
</g>
</svg>
