<?xml version="1.0" encoding="utf-8"?>

<svg version="1.1" xmlns="http://www.w3.org/2000/svg" xmlns:xlink="http://www.w3.org/1999/xlink" x="0px" y="0px"
	 viewBox="0 0 16 16" style="enable-background:new 0 0 16 16;" xml:space="preserve">
<g id="artwork">
	<path style="fill:none;stroke:#FFFFFF;stroke-linejoin:round;stroke-miterlimit:10;" d="M7.5,4.7L5.2,6.1C4.9,6.2,4.8,6.6,5,6.9
		l1.4,2.5"/>
	<path style="fill:none;stroke:#FFFFFF;stroke-linejoin:round;stroke-miterlimit:10;" d="M8.4,4.7l2.3,1.3c0.3,0.2,0.4,0.5,0.2,0.8
		L9.5,9.3"/>
	<line style="fill:none;stroke:#FFFFFF;stroke-linejoin:round;stroke-miterlimit:10;" x1="8" y1="0.1" x2="8" y2="3.9"/>
	<path style="fill:none;stroke:#FFFFFF;stroke-miterlimit:10;" d="M3.6,15.3h-3v-3c0-0.3,0.2-0.5,0.5-0.5h3v3
		C4.1,15.1,3.9,15.3,3.6,15.3z"/>
	<path style="fill:none;stroke:#FFFFFF;stroke-miterlimit:10;" d="M9.2,15.3h-3v-3c0-0.3,0.2-0.5,0.5-0.5h3v3
		C9.7,15.1,9.5,15.3,9.2,15.3z"/>
	<path style="fill:none;stroke:#FFFFFF;stroke-miterlimit:10;" d="M14.9,15.3h-3v-3c0-0.3,0.2-0.5,0.5-0.5h3v3
		C15.3,15.1,15.1,15.3,14.9,15.3z"/>
</g>
</svg>
