<?xml version="1.0" encoding="utf-8"?>
<!-- Generator: Adobe Illustrator 26.0.0, SVG Export Plug-In . SVG Version: 6.00 Build 0)  -->
<svg version="1.1" id="artwork" xmlns="http://www.w3.org/2000/svg" xmlns:xlink="http://www.w3.org/1999/xlink" x="0px" y="0px"
	 viewBox="0 0 16 16" style="enable-background:new 0 0 16 16;" xml:space="preserve">
<g>
	<path style="fill:#FFFFFF;" d="M1.4,12.2H0V8.9c0-0.2,0.2-0.4,0.4-0.4h1.4v3.3C1.8,12,1.7,12.2,1.4,12.2z"/>
	<path style="fill:#FFFFFF;" d="M15.6,12.2h-1.4V8.9c0-0.2,0.2-0.4,0.4-0.4H16v3.3C16,12,15.8,12.2,15.6,12.2z"/>
	<line style="fill:none;stroke:#FFFFFF;stroke-miterlimit:10;" x1="8" y1="1.7" x2="8" y2="3.6"/>
	<circle style="fill:#FFFFFF;" cx="8" cy="1.3" r="1.3"/>
	<path style="fill:none;stroke:#FFFFFF;stroke-miterlimit:10;" d="M3.2,5.6c-0.5,0-1,0.5-1,1v8.9h10.6c0.5,0,1-0.5,1-1V5.6H3.2z"/>
	<line style="fill:none;stroke:#FFFFFF;stroke-miterlimit:10;" x1="5.4" y1="12.6" x2="10.6" y2="12.6"/>
	<path style="fill:#FFFFFF;" d="M5.5,10.3c-0.6,0-1.1-0.5-1.1-1.1s0.5-1.1,1.1-1.1s1.1,0.5,1.1,1.1S6.1,10.3,5.5,10.3z"/>
	<path style="fill:#FFFFFF;" d="M10.5,10.3c-0.6,0-1.1-0.5-1.1-1.1s0.5-1.1,1.1-1.1s1.1,0.5,1.1,1.1S11.1,10.3,10.5,10.3z"/>
</g>
</svg>
