<?xml version="1.0" encoding="utf-8"?>
<svg version="1.1" xmlns="http://www.w3.org/2000/svg" xmlns:xlink="http://www.w3.org/1999/xlink" x="0px" y="0px"
	 viewBox="0 0 16 16" style="enable-background:new 0 0 16 16;" xml:space="preserve">
<g id="BG3">
</g>
<g id="BG2">
</g>
<g id="BG1">
</g>
<g id="artwork">
	<g>
		<path style="fill:#FFFFFF;" d="M8.6,6.6l1.8-1.8l0.9,0.9L9.6,7.4h4.5c0.4,0,0.7-0.3,0.7-0.7V1.3H9.3c-0.4,0-0.7,0.3-0.7,0.7V6.6z"
			/>
		<path style="fill:#FFFFFF;" d="M6.4,7.4L4.7,5.7l0.9-0.9l1.8,1.8V1.3H1.9c-0.4,0-0.7,0.3-0.7,0.7v5.5H6.4z"/>
		<path style="fill:#FFFFFF;" d="M7.4,8.7H1.9C1.6,8.7,1.3,9,1.3,9.3v5.4h5.4c0.4,0,0.7-0.3,0.7-0.7V8.7z"/>
		<path style="fill:#FFFFFF;" d="M8.6,9.3v5.4h5.4c0.4,0,0.7-0.3,0.7-0.7V8.7H9.3C8.9,8.7,8.6,9,8.6,9.3z"/>
	</g>
</g>
</svg>
