<?xml version="1.0" encoding="utf-8"?>

<svg version="1.1" xmlns="http://www.w3.org/2000/svg" xmlns:xlink="http://www.w3.org/1999/xlink" x="0px" y="0px"
	 viewBox="0 0 16 16" style="enable-background:new 0 0 16 16;" xml:space="preserve">
<g id="artwork">
	<g>
		<path style="fill:#FFFFFF;" d="M6.3,14.7h-5v-5c0-0.7,0.5-1.2,1.2-1.2h5v5C7.5,14.2,7,14.7,6.3,14.7z"/>
		<path style="fill:#FFFFFF;" d="M13.5,14.7h-5v-5C8.5,9,9,8.5,9.7,8.5h5v5C14.7,14.2,14.2,14.7,13.5,14.7z"/>
		<path style="fill:#FFFFFF;" d="M9.7,1.2C9,1.2,8.5,1.8,8.5,2.4v3.8l1.7-1.7l0.7,0.7L8.7,7.5h4.8c0.7,0,1.2-0.5,1.2-1.2v-5H9.7z"/>
		<path style="fill:#FFFFFF;" d="M5.1,5.3l0.7-0.7l1.7,1.7c0,0,0,0,0,0v-5h-5c-0.7,0-1.2,0.5-1.2,1.2v5h5c0.3,0,0.5-0.1,0.7-0.3
			L5.1,5.3z"/>
	</g>
</g>
</svg>
