<?xml version="1.0" encoding="utf-8"?>
<!-- Generator: Adobe Illustrator 26.0.0, SVG Export Plug-In . SVG Version: 6.00 Build 0)  -->
<svg version="1.1" id="artwork" xmlns="http://www.w3.org/2000/svg" xmlns:xlink="http://www.w3.org/1999/xlink" x="0px" y="0px"
	 viewBox="0 0 16 16" style="enable-background:new 0 0 16 16;" xml:space="preserve">
<g>
	<g>
		<line style="fill:none;stroke:#FFFFFF;stroke-miterlimit:10;" x1="6.3" y1="2.1" x2="16" y2="2.1"/>
		<line style="fill:none;stroke:#FFFFFF;stroke-miterlimit:10;" x1="6.3" y1="8" x2="16" y2="8"/>
		<line style="fill:none;stroke:#FFFFFF;stroke-miterlimit:10;" x1="6.3" y1="13.9" x2="16" y2="13.9"/>
		<path style="fill:#FFFFFF;" d="M0.5,0C0.2,0,0,0.2,0,0.5v3.8h3.8c0.3,0,0.5-0.2,0.5-0.5V0H0.5z M2.1,3.3C1.5,3.3,1,2.8,1,2.1
			C1,1.5,1.5,1,2.1,1c0.6,0,1.2,0.5,1.2,1.2C3.3,2.8,2.8,3.3,2.1,3.3z"/>
		<path style="fill:#FFFFFF;" d="M0.5,5.9C0.2,5.9,0,6.1,0,6.4v3.8h3.8c0.3,0,0.5-0.2,0.5-0.5V5.9H0.5z M2.1,9.2C1.5,9.2,1,8.6,1,8
			c0-0.6,0.5-1.2,1.2-1.2c0.6,0,1.2,0.5,1.2,1.2C3.3,8.6,2.8,9.2,2.1,9.2z"/>
		<path style="fill:#FFFFFF;" d="M0.5,11.7c-0.3,0-0.5,0.2-0.5,0.5V16h3.8c0.3,0,0.5-0.2,0.5-0.5v-3.8H0.5z M2.1,15
			C1.5,15,1,14.5,1,13.9c0-0.6,0.5-1.2,1.2-1.2c0.6,0,1.2,0.5,1.2,1.2C3.3,14.5,2.8,15,2.1,15z"/>
	</g>
</g>
</svg>
