<?xml version="1.0" encoding="utf-8"?>

<svg version="1.1" xmlns="http://www.w3.org/2000/svg" xmlns:xlink="http://www.w3.org/1999/xlink" x="0px" y="0px"
	 viewBox="0 0 16 16" style="enable-background:new 0 0 16 16;" xml:space="preserve">
<g id="artwork">
	<g>
		<path style="fill:none;stroke:#FFFFFF;stroke-miterlimit:10;" d="M6.5,13.8H0.9V3.4c0-0.4,0.3-0.7,0.7-0.7h5.6V13
			C7.2,13.4,6.9,13.8,6.5,13.8z"/>
		<path style="fill:#FFFFFF;" d="M14.8,6.7h-3.9V2.8c0-0.4,0.3-0.6,0.6-0.6h3.9v3.9C15.4,6.4,15.1,6.7,14.8,6.7z"/>
		<path style="fill:#FFFFFF;" d="M14.8,14.3h-3.9v-3.9c0-0.4,0.3-0.6,0.6-0.6h3.9v3.9C15.4,14,15.1,14.3,14.8,14.3z"/>
		<line style="fill:none;stroke:#FFFFFF;stroke-miterlimit:10;" x1="7.2" y1="4.4" x2="9.7" y2="4.4"/>
		<line style="fill:none;stroke:#FFFFFF;stroke-miterlimit:10;" x1="7.2" y1="12" x2="9.7" y2="12"/>
	</g>
</g>
</svg>
