

<svg version="1.1" xmlns="http://www.w3.org/2000/svg" xmlns:xlink="http://www.w3.org/1999/xlink" x="0px" y="0px"
	 viewBox="0 0 16 16"  xml:space="preserve">
<g id="artwork">
	<g>
		<path style="fill:none;stroke:#FFFFFF;stroke-miterlimit:10;" d="M6.9,14.7H0.9V2.1c0-0.4,0.3-0.7,0.7-0.7h6.1v12.6
			C7.7,14.3,7.3,14.7,6.9,14.7z"/>
		<path style="fill:#FFFFFF;" d="M15.2,7.1h-4.9V2.1c0-0.4,0.4-0.8,0.8-0.8H16v4.9C16,6.7,15.6,7.1,15.2,7.1z"/>
		<path style="fill:#FFFFFF;" d="M15.2,14.7h-4.9V9.7c0-0.4,0.4-0.8,0.8-0.8H16v4.9C16,14.3,15.6,14.7,15.2,14.7z"/>
		<line style="fill:none;stroke:#FFFFFF;stroke-miterlimit:10;" x1="7.7" y1="4.5" x2="10.3" y2="4.5"/>
		<line style="fill:none;stroke:#FFFFFF;stroke-miterlimit:10;" x1="7.7" y1="11.8" x2="10.3" y2="11.8"/>
	</g>
</g>
</svg>
