<?xml version="1.0" encoding="utf-8"?>
<!-- Generator: Adobe Illustrator 26.0.0, SVG Export Plug-In . SVG Version: 6.00 Build 0)  -->
<svg version="1.1" id="artwork" xmlns="http://www.w3.org/2000/svg" xmlns:xlink="http://www.w3.org/1999/xlink" x="0px" y="0px"
	 viewBox="0 0 16 16" style="enable-background:new 0 0 16 16;" xml:space="preserve">
<g>
	<path style="fill:none;stroke:#FFFFFF;stroke-miterlimit:10;" d="M6.5,14.1H0.6v-11c0-0.4,0.4-0.8,0.8-0.8h5.9v11
		C7.3,13.7,6.9,14.1,6.5,14.1z"/>
	<path style="fill:#FFFFFF;" d="M15.3,6.6h-4.1V2.5c0-0.4,0.3-0.7,0.7-0.7H16V6C16,6.3,15.7,6.6,15.3,6.6z"/>
	<path style="fill:#FFFFFF;" d="M15.3,14.6h-4.1v-4.2c0-0.4,0.3-0.7,0.7-0.7H16V14C16,14.3,15.7,14.6,15.3,14.6z"/>
	<line style="fill:none;stroke:#FFFFFF;stroke-miterlimit:10;" x1="9.3" y1="4.2" x2="13.2" y2="4.2"/>
	<line style="fill:none;stroke:#FFFFFF;stroke-miterlimit:10;" x1="9.3" y1="12.2" x2="13.2" y2="12.2"/>
</g>
</svg>
