

<svg version="1.1" xmlns="http://www.w3.org/2000/svg" xmlns:xlink="http://www.w3.org/1999/xlink" x="0px" y="0px"
	 viewBox="0 0 16 16"  xml:space="preserve">
<g id="artwork">
	<g>
		<g>
			<line style="fill:none;stroke:#FFFFFF;stroke-miterlimit:10;" x1="9.8" y1="4.6" x2="4.4" y2="10"/>
			<line style="fill:none;stroke:#FFFFFF;stroke-miterlimit:10;" x1="11.4" y1="5.9" x2="6.1" y2="11.3"/>
			<path style="fill:#FFFFFF;" d="M14.3,2.4l-1.9,1.9c-0.2,0.2-0.5,0.2-0.7,0c-0.2-0.2-0.2-0.5,0-0.7l1.9-1.9
				C12.5,0.9,11,1.1,10.1,2C9,3.1,9,4.8,10.1,5.9C11.2,7,12.9,7,14,5.9C14.9,5,15.1,3.5,14.3,2.4z"/>
			<path style="fill:#FFFFFF;" d="M5.9,10.1C4.8,9,3.1,9,2,10.1S0.9,12.9,2,14c1.1,1.1,2.8,1.1,3.9,0S7,11.2,5.9,10.1z M3.2,12.8
				c-0.4-0.4-0.4-1.1,0-1.6s1.1-0.4,1.6,0c0.4,0.4,0.4,1.1,0,1.6C4.3,13.3,3.6,13.3,3.2,12.8z"/>
		</g>
	</g>
</g>
</svg>
