

<svg version="1.1" xmlns="http://www.w3.org/2000/svg" xmlns:xlink="http://www.w3.org/1999/xlink" x="0px" y="0px"
	 viewBox="0 0 16 16"  xml:space="preserve">
<g id="artwork">
	<g>
		<g>
			<path style="fill:none;stroke:#FFFFFF;stroke-linejoin:round;stroke-miterlimit:10;" d="M0.2,13.6h14.9c0.2,0,0.4-0.2,0.4-0.4V5"
				/>
			<path style="fill:none;stroke:#FFFFFF;stroke-linejoin:round;stroke-miterlimit:10;" d="M15.8,2.7H0.9c-0.2,0-0.4,0.2-0.4,0.4
				v8.3"/>
			<path style="fill:#FFFFFF;" d="M6.1,8.9H2.4V5.1c0-0.3,0.2-0.5,0.5-0.5h3.7v3.8C6.6,8.7,6.3,8.9,6.1,8.9z"/>
			<line style="fill:none;stroke:#FFFFFF;stroke-linejoin:round;stroke-miterlimit:10;" x1="7.9" y1="5.4" x2="11.8" y2="5.4"/>
			<line style="fill:none;stroke:#FFFFFF;stroke-linejoin:round;stroke-miterlimit:10;" x1="7.9" y1="8.2" x2="13" y2="8.2"/>
			<line style="fill:none;stroke:#FFFFFF;stroke-linejoin:round;stroke-miterlimit:10;" x1="2.5" y1="11.1" x2="6.5" y2="11.1"/>
			<line style="fill:none;stroke:#FFFFFF;stroke-linejoin:round;stroke-miterlimit:10;" x1="7.9" y1="11.1" x2="10" y2="11.1"/>
			<line style="fill:none;stroke:#FFFFFF;stroke-linejoin:round;stroke-miterlimit:10;" x1="10.9" y1="11.1" x2="14" y2="11.1"/>
		</g>
	</g>
</g>
</svg>
