<?xml version="1.0" encoding="utf-8"?>
<svg version="1.1" xmlns="http://www.w3.org/2000/svg" xmlns:xlink="http://www.w3.org/1999/xlink" x="0px" y="0px"
	 viewBox="0 0 16 16" style="enable-background:new 0 0 16 16;" xml:space="preserve">
<g id="BG3">
</g>
<g id="BG2">
</g>
<g id="BG1">
</g>
<g id="artwork">
	<g>
		<g>
			<path style="fill:none;stroke:#FFFFFF;stroke-miterlimit:10;" d="M1.1,15l2.6-2.6c0.3-0.3,0.8-0.3,1.2,0l0.7,0.7"/>
			<path style="fill:none;stroke:#FFFFFF;stroke-miterlimit:10;" d="M13.7,11.2L11.9,13c-0.3,0.3-0.8,0.3-1.2,0l-0.6-0.6
				c-0.3-0.3-0.8-0.3-1.2,0L6.4,15"/>
			<g>
				<line style="fill:none;stroke:#FFFFFF;stroke-miterlimit:10;" x1="10.3" y1="2.2" x2="12.9" y2="2.2"/>
				<line style="fill:none;stroke:#FFFFFF;stroke-miterlimit:10;" x1="10.3" y1="5" x2="14.8" y2="5"/>
				<line style="fill:none;stroke:#FFFFFF;stroke-miterlimit:10;" x1="10.3" y1="7.8" x2="14" y2="7.8"/>
			</g>
			<path style="fill:#FFFFFF;" d="M6.8,2.1C6.2,1.6,5.5,1.4,4.7,1.4C2.7,1.4,1.1,3,1.1,5c0,2,1.6,3.6,3.6,3.6c2,0,3.6-1.6,3.6-3.6
				H4.7L6.8,2.1z"/>
		</g>
	</g>
</g>
</svg>
