<?xml version="1.0" encoding="utf-8"?>
<svg version="1.1" xmlns="http://www.w3.org/2000/svg" xmlns:xlink="http://www.w3.org/1999/xlink" x="0px" y="0px"
	 viewBox="0 0 16 16" style="enable-background:new 0 0 16 16;" xml:space="preserve">
<g id="BG3">
</g>
<g id="BG2">
</g>
<g id="BG1">
</g>
<g id="artwork">
	<line style="fill:none;stroke:#FFFFFF;stroke-miterlimit:10;" x1="1.4" y1="3.4" x2="1.4" y2="7.2"/>
	<line style="fill:none;stroke:#FFFFFF;stroke-miterlimit:10;" x1="4.7" y1="4.8" x2="4.7" y2="7.2"/>
	<line style="fill:none;stroke:#FFFFFF;stroke-miterlimit:10;" x1="8.1" y1="2.2" x2="8.1" y2="7.2"/>
	<line style="fill:none;stroke:#FFFFFF;stroke-miterlimit:10;" x1="11.4" y1="1.2" x2="11.4" y2="7.2"/>
	<line style="fill:none;stroke:#FFFFFF;stroke-miterlimit:10;" x1="14.8" y1="4.2" x2="14.8" y2="7.2"/>
	<path style="fill:#FFFFFF;" d="M14.5,14.3h-3V9.8c0-0.4,0.4-0.8,0.8-0.8h3v4.5C15.3,14,15,14.3,14.5,14.3z"/>
	<path style="fill:#FFFFFF;" d="M3.7,14.3h-3V9.8C0.7,9.4,1,9,1.5,9h3v4.5C4.5,14,4.1,14.3,3.7,14.3z"/>
	<path style="fill:#FFFFFF;" d="M9.1,14.3h-3V9.8C6.1,9.4,6.5,9,6.9,9h3v4.5C9.9,14,9.5,14.3,9.1,14.3z"/>
</g>
</svg>
