<?xml version="1.0" encoding="utf-8"?>
<!-- Generator: Adobe Illustrator 26.0.0, SVG Export Plug-In . SVG Version: 6.00 Build 0)  -->
<svg version="1.1" id="artwork" xmlns="http://www.w3.org/2000/svg" xmlns:xlink="http://www.w3.org/1999/xlink" x="0px" y="0px"
	 viewBox="0 0 16 16" style="enable-background:new 0 0 16 16;" xml:space="preserve">
<g>
	<path style="fill:#FFFFFF;" d="M15.1,15.4h-3.3v-4.9c0-0.5,0.4-0.9,0.9-0.9H16v4.9C16,15,15.6,15.4,15.1,15.4z"/>
	<path style="fill:#FFFFFF;" d="M3.3,15.4H0v-4.9C0,10,0.4,9.7,0.9,9.7h3.3v4.9C4.1,15,3.7,15.4,3.3,15.4z"/>
	<path style="fill:#FFFFFF;" d="M9.2,15.4H5.9v-4.9c0-0.5,0.4-0.9,0.9-0.9h3.3v4.9C10.1,15,9.7,15.4,9.2,15.4z"/>
	<line style="fill:none;stroke:#FFFFFF;stroke-miterlimit:10;" x1="13.9" y1="0.6" x2="13.9" y2="7.1"/>
	<path style="fill:none;stroke:#FFFFFF;stroke-miterlimit:10;" d="M2.1,7.7V2.4c0-0.7,0.6-1.3,1.3-1.3h8.6"/>
	<polygon style="fill:#FFFFFF;" points="15.9,5.5 13.9,7.7 12,5.5 	"/>
</g>
</svg>
