<?xml version="1.0" encoding="utf-8"?>
<!-- Generator: Adobe Illustrator 26.0.0, SVG Export Plug-In . SVG Version: 6.00 Build 0)  -->
<svg version="1.1" id="artwork" xmlns="http://www.w3.org/2000/svg" xmlns:xlink="http://www.w3.org/1999/xlink" x="0px" y="0px"
	 viewBox="0 0 16 16" style="enable-background:new 0 0 16 16;" xml:space="preserve">
<g>
	<path style="fill:#FFFFFF;" d="M6.9,4.5H5.2V1c0-0.3,0.2-0.5,0.5-0.5h1.8V4C7.5,4.3,7.2,4.5,6.9,4.5z"/>
	<line style="fill:none;stroke:#FFFFFF;stroke-miterlimit:10;" x1="0" y1="2.5" x2="6.3" y2="2.5"/>
	<line style="fill:none;stroke:#FFFFFF;stroke-miterlimit:10;" x1="9.2" y1="2.5" x2="16" y2="2.5"/>
</g>
<g>
	<path style="fill:#FFFFFF;" d="M3.7,10H2V6.5C2,6.2,2.2,6,2.5,6h1.8v3.5C4.3,9.8,4,10,3.7,10z"/>
	<line style="fill:none;stroke:#FFFFFF;stroke-miterlimit:10;" x1="0" y1="8" x2="3.1" y2="8"/>
	<line style="fill:none;stroke:#FFFFFF;stroke-miterlimit:10;" x1="6" y1="8" x2="16" y2="8"/>
</g>
<g>
	<path style="fill:#FFFFFF;" d="M11,15.5H9.2V12c0-0.3,0.2-0.5,0.5-0.5h1.8V15C11.5,15.3,11.3,15.5,11,15.5z"/>
	<line style="fill:none;stroke:#FFFFFF;stroke-miterlimit:10;" x1="0" y1="13.5" x2="10.4" y2="13.5"/>
	<line style="fill:none;stroke:#FFFFFF;stroke-miterlimit:10;" x1="13.3" y1="13.5" x2="16" y2="13.5"/>
</g>
</svg>
