<?xml version="1.0" encoding="utf-8"?>
<svg version="1.1" xmlns="http://www.w3.org/2000/svg" xmlns:xlink="http://www.w3.org/1999/xlink" x="0px" y="0px"
	 viewBox="0 0 16 16" style="enable-background:new 0 0 16 16;" xml:space="preserve">
<g id="BG3">
</g>
<g id="BG2">
</g>
<g id="BG1">
</g>
<g id="artwork">
	<g>
		<path style="fill:#FFFFFF;" d="M7.1,5H5.6V2c0-0.3,0.2-0.5,0.5-0.5h1.5v3C7.5,4.8,7.3,5,7.1,5z"/>
		<line style="fill:none;stroke:#FFFFFF;stroke-miterlimit:10;" x1="1.1" y1="3.3" x2="6.5" y2="3.3"/>
		<line style="fill:none;stroke:#FFFFFF;stroke-miterlimit:10;" x1="9" y1="3.3" x2="14.9" y2="3.3"/>
	</g>
	<g>
		<path style="fill:#FFFFFF;" d="M4.3,9.7H2.8v-3c0-0.3,0.2-0.5,0.5-0.5h1.5v3C4.8,9.5,4.6,9.7,4.3,9.7z"/>
		<line style="fill:none;stroke:#FFFFFF;stroke-miterlimit:10;" x1="1.1" y1="8" x2="3.8" y2="8"/>
		<line style="fill:none;stroke:#FFFFFF;stroke-miterlimit:10;" x1="6.3" y1="8" x2="14.9" y2="8"/>
	</g>
	<g>
		<path style="fill:#FFFFFF;" d="M10.6,14.5H9.1v-3c0-0.3,0.2-0.5,0.5-0.5H11v3C11,14.3,10.8,14.5,10.6,14.5z"/>
		<line style="fill:none;stroke:#FFFFFF;stroke-miterlimit:10;" x1="1.1" y1="12.7" x2="10.1" y2="12.7"/>
		<line style="fill:none;stroke:#FFFFFF;stroke-miterlimit:10;" x1="12.5" y1="12.7" x2="14.9" y2="12.7"/>
	</g>
</g>
</svg>
