<?xml version="1.0" encoding="utf-8"?>
<svg version="1.1" xmlns="http://www.w3.org/2000/svg" xmlns:xlink="http://www.w3.org/1999/xlink" x="0px" y="0px"
	 viewBox="0 0 16 16" style="enable-background:new 0 0 16 16;" xml:space="preserve">
<g id="BG3">
</g>
<g id="BG2">
</g>
<g id="BG1">
</g>
<g id="artwork">
	<g>
		<line style="fill:none;stroke:#FFFFFF;stroke-miterlimit:10;" x1="1.9" y1="7.4" x2="1.9" y2="4.1"/>
		<line style="fill:none;stroke:#FFFFFF;stroke-miterlimit:10;" x1="13.3" y1="13" x2="11" y2="15.3"/>
		<line style="fill:none;stroke:#FFFFFF;stroke-miterlimit:10;" x1="13.9" y1="5.2" x2="13.9" y2="10.8"/>
		<line style="fill:none;stroke:#FFFFFF;stroke-miterlimit:10;" x1="5.4" y1="1.2" x2="11" y2="1.2"/>
		<path style="fill:none;stroke:#FFFFFF;stroke-miterlimit:10;" d="M2.6,9.5l1.1-1.1c0.1-0.1,0.2-0.3,0.2-0.5V2.8"/>
		<path style="fill:none;stroke:#FFFFFF;stroke-miterlimit:10;" d="M11.9,9.1v2.2c0,0.2-0.1,0.4-0.2,0.5l-3.4,3.4"/>
		<path style="fill:none;stroke:#FFFFFF;stroke-miterlimit:10;" d="M5.4,3.2h5.8c0.4,0,0.7,0.3,0.7,0.7v3.9"/>
		<path style="fill:none;stroke:#FFFFFF;stroke-miterlimit:10;" d="M5.9,6.6V5.9c0-0.4,0.3-0.7,0.7-0.7h3.7"/>
		<path style="fill:none;stroke:#FFFFFF;stroke-miterlimit:10;" d="M3,12l2.7-2.7C5.8,9.1,5.9,9,5.9,8.8V7.6"/>
		<line style="fill:none;stroke:#FFFFFF;stroke-miterlimit:10;" x1="7.2" y1="13.4" x2="5.8" y2="14.8"/>
		<path style="fill:none;stroke:#FFFFFF;stroke-miterlimit:10;" d="M9.9,6.8v3.6c0,0.2-0.1,0.4-0.2,0.5L8,12.6"/>
		<path style="fill:none;stroke:#FFFFFF;stroke-miterlimit:10;" d="M4.4,13.4l3.3-3.3C7.8,10,7.9,9.8,7.9,9.6v-3"/>
	</g>
</g>
</svg>
