<?xml version="1.0" encoding="utf-8"?>
<!-- Generator: Adobe Illustrator 26.0.0, SVG Export Plug-In . SVG Version: 6.00 Build 0)  -->
<svg version="1.1" id="artwork" xmlns="http://www.w3.org/2000/svg" xmlns:xlink="http://www.w3.org/1999/xlink" x="0px" y="0px"
	 viewBox="0 0 16 16" style="enable-background:new 0 0 16 16;" xml:space="preserve">
<g>
	<line style="fill:none;stroke:#FFFFFF;stroke-miterlimit:10;" x1="2.9" y1="2.6" x2="5.1" y2="0.4"/>
	<line style="fill:none;stroke:#FFFFFF;stroke-miterlimit:10;" x1="14" y1="11.9" x2="10.2" y2="15.7"/>
	<line style="fill:none;stroke:#FFFFFF;stroke-miterlimit:10;" x1="11.6" y1="0.7" x2="14.2" y2="3.3"/>
	<path style="fill:none;stroke:#FFFFFF;stroke-miterlimit:10;" d="M1.8,5h1.7C3.8,5,4,4.9,4.2,4.7l4.4-4.4"/>
	<path style="fill:none;stroke:#FFFFFF;stroke-miterlimit:10;" d="M10,12.5l-1.8,1.8c-0.2,0.2-0.4,0.3-0.6,0.3H2.9"/>
	<path style="fill:none;stroke:#FFFFFF;stroke-miterlimit:10;" d="M9.5,2l4.9,4.9c0.3,0.3,0.3,0.9,0,1.2l-3.3,3.3"/>
	<path style="fill:none;stroke:#FFFFFF;stroke-miterlimit:10;" d="M7,5.3l0.6-0.6c0.3-0.3,0.9-0.3,1.2,0L12,7.9"/>
	<path style="fill:none;stroke:#FFFFFF;stroke-miterlimit:10;" d="M0.9,7.4h3.7c0.2,0,0.5-0.1,0.6-0.3l1-1"/>
	<line style="fill:none;stroke:#FFFFFF;stroke-miterlimit:10;" x1="3.4" y1="12.2" x2="0.9" y2="12.2"/>
	<path style="fill:none;stroke:#FFFFFF;stroke-miterlimit:10;" d="M10.4,8.8l-3.2,3.2c-0.2,0.2-0.4,0.3-0.6,0.3H4.8"/>
	<path style="fill:none;stroke:#FFFFFF;stroke-miterlimit:10;" d="M0.9,9.8h4.6c0.2,0,0.5-0.1,0.6-0.3l2.5-2.5"/>
</g>
</svg>
