<?xml version="1.0" encoding="utf-8"?>
<!-- Generator: Adobe Illustrator 26.0.0, SVG Export Plug-In . SVG Version: 6.00 Build 0)  -->
<svg version="1.1" id="artwork" xmlns="http://www.w3.org/2000/svg" xmlns:xlink="http://www.w3.org/1999/xlink" x="0px" y="0px"
	 viewBox="0 0 16 16" style="enable-background:new 0 0 16 16;" xml:space="preserve">
<g>
	<circle style="fill:none;stroke:#FFFFFF;stroke-linejoin:round;stroke-miterlimit:10;" cx="5.5" cy="11.8" r="2.9"/>
	<g>
		<line style="fill:none;stroke:#FFFFFF;stroke-linejoin:round;stroke-miterlimit:10;" x1="5.5" y1="7.5" x2="5.5" y2="8.8"/>
		<line style="fill:none;stroke:#FFFFFF;stroke-linejoin:round;stroke-miterlimit:10;" x1="5.5" y1="14.7" x2="5.5" y2="16"/>
	</g>
	<g>
		<line style="fill:none;stroke:#FFFFFF;stroke-linejoin:round;stroke-miterlimit:10;" x1="1.3" y1="11.8" x2="2.6" y2="11.8"/>
		<line style="fill:none;stroke:#FFFFFF;stroke-linejoin:round;stroke-miterlimit:10;" x1="8.4" y1="11.8" x2="9.7" y2="11.8"/>
	</g>
	<g>
		<line style="fill:none;stroke:#FFFFFF;stroke-linejoin:round;stroke-miterlimit:10;" x1="2.5" y1="8.8" x2="3.4" y2="9.7"/>
		<line style="fill:none;stroke:#FFFFFF;stroke-linejoin:round;stroke-miterlimit:10;" x1="7.6" y1="13.9" x2="8.5" y2="14.8"/>
	</g>
	<g>
		<line style="fill:none;stroke:#FFFFFF;stroke-linejoin:round;stroke-miterlimit:10;" x1="2.5" y1="14.8" x2="3.4" y2="13.9"/>
		<line style="fill:none;stroke:#FFFFFF;stroke-linejoin:round;stroke-miterlimit:10;" x1="7.6" y1="9.7" x2="8.5" y2="8.8"/>
	</g>
	<circle style="fill:none;stroke:#FFFFFF;stroke-linejoin:round;stroke-miterlimit:10;" cx="10.5" cy="4.2" r="2.9"/>
	<g>
		<line style="fill:none;stroke:#FFFFFF;stroke-linejoin:round;stroke-miterlimit:10;" x1="10.5" y1="0" x2="10.5" y2="1.3"/>
		<line style="fill:none;stroke:#FFFFFF;stroke-linejoin:round;stroke-miterlimit:10;" x1="10.5" y1="7.2" x2="10.5" y2="8.5"/>
	</g>
	<g>
		<line style="fill:none;stroke:#FFFFFF;stroke-linejoin:round;stroke-miterlimit:10;" x1="6.3" y1="4.2" x2="7.6" y2="4.2"/>
		<line style="fill:none;stroke:#FFFFFF;stroke-linejoin:round;stroke-miterlimit:10;" x1="13.4" y1="4.2" x2="14.7" y2="4.2"/>
	</g>
	<g>
		<line style="fill:none;stroke:#FFFFFF;stroke-linejoin:round;stroke-miterlimit:10;" x1="7.5" y1="1.2" x2="8.4" y2="2.1"/>
		<line style="fill:none;stroke:#FFFFFF;stroke-linejoin:round;stroke-miterlimit:10;" x1="12.6" y1="6.3" x2="13.5" y2="7.2"/>
	</g>
	<g>
		<line style="fill:none;stroke:#FFFFFF;stroke-linejoin:round;stroke-miterlimit:10;" x1="7.5" y1="7.2" x2="8.4" y2="6.3"/>
		<line style="fill:none;stroke:#FFFFFF;stroke-linejoin:round;stroke-miterlimit:10;" x1="12.6" y1="2.1" x2="13.5" y2="1.2"/>
	</g>
	<circle style="fill:#FFFFFF;" cx="5.5" cy="11.8" r="0.9"/>
	<circle style="fill:#FFFFFF;" cx="10.5" cy="4.2" r="0.9"/>
</g>
</svg>
