<?xml version="1.0" encoding="utf-8"?>
<svg version="1.1" xmlns="http://www.w3.org/2000/svg" xmlns:xlink="http://www.w3.org/1999/xlink" x="0px" y="0px"
	 viewBox="0 0 16 16" style="enable-background:new 0 0 16 16;" xml:space="preserve">
<g id="BG3">
</g>
<g id="BG2">
</g>
<g id="BG1">
</g>
<g id="artwork">
	<circle style="fill:none;stroke:#FFFFFF;stroke-linejoin:round;stroke-miterlimit:10;" cx="5.6" cy="11.6" r="2.8"/>
	<g>
		<line style="fill:none;stroke:#FFFFFF;stroke-linejoin:round;stroke-miterlimit:10;" x1="5.6" y1="7.6" x2="5.6" y2="8.8"/>
		<line style="fill:none;stroke:#FFFFFF;stroke-linejoin:round;stroke-miterlimit:10;" x1="5.6" y1="14.5" x2="5.6" y2="15.7"/>
	</g>
	<g>
		<line style="fill:none;stroke:#FFFFFF;stroke-linejoin:round;stroke-miterlimit:10;" x1="1.5" y1="11.6" x2="2.8" y2="11.6"/>
		<line style="fill:none;stroke:#FFFFFF;stroke-linejoin:round;stroke-miterlimit:10;" x1="8.4" y1="11.6" x2="9.7" y2="11.6"/>
	</g>
	<g>
		<line style="fill:none;stroke:#FFFFFF;stroke-linejoin:round;stroke-miterlimit:10;" x1="2.7" y1="8.8" x2="3.6" y2="9.6"/>
		<line style="fill:none;stroke:#FFFFFF;stroke-linejoin:round;stroke-miterlimit:10;" x1="7.6" y1="13.6" x2="8.5" y2="14.5"/>
	</g>
	<g>
		<line style="fill:none;stroke:#FFFFFF;stroke-linejoin:round;stroke-miterlimit:10;" x1="2.7" y1="14.5" x2="3.6" y2="13.6"/>
		<line style="fill:none;stroke:#FFFFFF;stroke-linejoin:round;stroke-miterlimit:10;" x1="7.6" y1="9.6" x2="8.5" y2="8.8"/>
	</g>
	<circle style="fill:none;stroke:#FFFFFF;stroke-linejoin:round;stroke-miterlimit:10;" cx="10.4" cy="4.4" r="2.8"/>
	<g>
		<line style="fill:none;stroke:#FFFFFF;stroke-linejoin:round;stroke-miterlimit:10;" x1="10.4" y1="0.3" x2="10.4" y2="1.6"/>
		<line style="fill:none;stroke:#FFFFFF;stroke-linejoin:round;stroke-miterlimit:10;" x1="10.4" y1="7.2" x2="10.4" y2="8.5"/>
	</g>
	<g>
		<line style="fill:none;stroke:#FFFFFF;stroke-linejoin:round;stroke-miterlimit:10;" x1="6.3" y1="4.4" x2="7.6" y2="4.4"/>
		<line style="fill:none;stroke:#FFFFFF;stroke-linejoin:round;stroke-miterlimit:10;" x1="13.2" y1="4.4" x2="14.5" y2="4.4"/>
	</g>
	<g>
		<line style="fill:none;stroke:#FFFFFF;stroke-linejoin:round;stroke-miterlimit:10;" x1="7.5" y1="1.5" x2="8.4" y2="2.4"/>
		<line style="fill:none;stroke:#FFFFFF;stroke-linejoin:round;stroke-miterlimit:10;" x1="12.4" y1="6.4" x2="13.3" y2="7.3"/>
	</g>
	<g>
		<line style="fill:none;stroke:#FFFFFF;stroke-linejoin:round;stroke-miterlimit:10;" x1="7.5" y1="7.3" x2="8.4" y2="6.4"/>
		<line style="fill:none;stroke:#FFFFFF;stroke-linejoin:round;stroke-miterlimit:10;" x1="12.4" y1="2.4" x2="13.3" y2="1.5"/>
	</g>
	<circle style="fill:#FFFFFF;" cx="5.6" cy="11.6" r="0.9"/>
	<circle style="fill:#FFFFFF;" cx="10.4" cy="4.4" r="0.9"/>
</g>
</svg>
