<?xml version="1.0" encoding="utf-8"?>
<svg version="1.1" xmlns="http://www.w3.org/2000/svg" xmlns:xlink="http://www.w3.org/1999/xlink" x="0px" y="0px"
	 viewBox="0 0 16 16" style="enable-background:new 0 0 16 16;" xml:space="preserve">
<g id="BG3">
</g>
<g id="BG2">
</g>
<g id="BG1">
</g>
<g id="artwork">
	<path style="fill:none;stroke:#FFFFFF;stroke-miterlimit:10;" d="M5.6,16v-3.3c0-0.4,0.3-0.7,0.7-0.7h4.2v4"/>
	<path style="fill:none;stroke:#FFFFFF;stroke-miterlimit:10;" d="M1.5,11v2.1c0,0.5,0.3,1,0.7,1.3l1.9,1.2"/>
	<path style="fill:none;stroke:#FFFFFF;stroke-miterlimit:10;" d="M3.8,0.2v2.4c0,0.3-0.1,0.7-0.4,0.9L2.2,4.7"/>
	<path style="fill:none;stroke:#FFFFFF;stroke-miterlimit:10;" d="M12.3,0.2v2.4c0,0.3,0.1,0.7,0.4,0.9l1.3,1.3"/>
	<path style="fill:none;stroke:#FFFFFF;stroke-miterlimit:10;" d="M10.9,1.2L9.6,2.3c-0.9,0.8-2.3,0.8-3.2,0L5.2,1.2"/>
	<path style="fill:none;stroke:#FFFFFF;stroke-miterlimit:10;" d="M14.3,5.8c0,2.3-2.8,4.2-6.2,4.2S1.8,8.1,1.8,5.8"/>
</g>
</svg>
