<?xml version="1.0" encoding="utf-8"?>
<svg version="1.1" xmlns="http://www.w3.org/2000/svg" xmlns:xlink="http://www.w3.org/1999/xlink" x="0px" y="0px"
	 viewBox="0 0 16 16" style="enable-background:new 0 0 16 16;" xml:space="preserve">
<g id="BG3">
</g>
<g id="BG2">
</g>
<g id="BG1">
</g>
<g id="artwork">
	<g>
		<g>
			<path style="fill:none;stroke:#FFFFFF;stroke-linejoin:round;stroke-miterlimit:10;" d="M0,13.5h15.1c0.2,0,0.4-0.2,0.4-0.4V4.7"
				/>
			<path style="fill:none;stroke:#FFFFFF;stroke-linejoin:round;stroke-miterlimit:10;" d="M16,2.5H0.9c-0.2,0-0.4,0.2-0.4,0.4
				l0,8.5"/>
			<path style="fill:#FFFFFF;" d="M6.1,8.4H2.4V5c0-0.3,0.2-0.5,0.5-0.5h3.7v3.5C6.6,8.2,6.3,8.4,6.1,8.4z"/>
			<line style="fill:none;stroke:#FFFFFF;stroke-linejoin:round;stroke-miterlimit:10;" x1="8.2" y1="5" x2="13.6" y2="5"/>
			<line style="fill:none;stroke:#FFFFFF;stroke-linejoin:round;stroke-miterlimit:10;" x1="8.2" y1="7.9" x2="12.6" y2="7.9"/>
			<line style="fill:none;stroke:#FFFFFF;stroke-linejoin:round;stroke-miterlimit:10;" x1="2.5" y1="10.9" x2="6.5" y2="10.9"/>
			<line style="fill:none;stroke:#FFFFFF;stroke-linejoin:round;stroke-miterlimit:10;" x1="8.2" y1="10.9" x2="10.1" y2="10.9"/>
			<line style="fill:none;stroke:#FFFFFF;stroke-linejoin:round;stroke-miterlimit:10;" x1="11.3" y1="10.9" x2="13.6" y2="10.9"/>
		</g>
	</g>
</g>
</svg>
