

<svg version="1.1" xmlns="http://www.w3.org/2000/svg" xmlns:xlink="http://www.w3.org/1999/xlink" x="0px" y="0px"
	 viewBox="0 0 16 16"  xml:space="preserve">
<g id="artwork">
	<g>
		<line style="fill:none;stroke:#FFFFFF;stroke-miterlimit:10;" x1="3.2" y1="13.7" x2="13.1" y2="13.7"/>
		<g>
			<line style="fill:none;stroke:#FFFFFF;stroke-miterlimit:10;" x1="3.3" y1="2.3" x2="4.7" y2="4.3"/>
			<line style="fill:none;stroke:#FFFFFF;stroke-miterlimit:10;" x1="13.1" y1="2.3" x2="11.7" y2="4.3"/>
		</g>
		<line style="fill:none;stroke:#FFFFFF;stroke-miterlimit:10;" x1="8.2" y1="1.5" x2="8.2" y2="3.9"/>
		<path style="fill:#FFFFFF;" d="M10.2,5.4H6.1c-1,0-1.8,0.8-1.8,1.8v4.4H12V7.2C12,6.2,11.2,5.4,10.2,5.4z M8.2,9.8
			c-0.7,0-1.3-0.6-1.3-1.3c0-0.7,0.6-1.3,1.3-1.3s1.3,0.6,1.3,1.3C9.5,9.2,8.9,9.8,8.2,9.8z"/>
	</g>
</g>
</svg>
