<?xml version="1.0" encoding="utf-8"?>
<!-- Generator: Adobe Illustrator 26.0.0, SVG Export Plug-In . SVG Version: 6.00 Build 0)  -->
<svg version="1.1" id="artwork" xmlns="http://www.w3.org/2000/svg" xmlns:xlink="http://www.w3.org/1999/xlink" x="0px" y="0px"
	 viewBox="0 0 16 16" style="enable-background:new 0 0 16 16;" xml:space="preserve">
<g>
	<path style="fill:#FFFFFF;" d="M0.7,10.4c-0.4,0-0.7,0.3-0.7,0.7V16h15.3c0.4,0,0.7-0.3,0.7-0.7v-4.9H0.7z M2.8,14.3
		c-0.6,0-1.1-0.5-1.1-1.1c0-0.6,0.5-1.1,1.1-1.1s1.1,0.5,1.1,1.1C3.8,13.8,3.4,14.3,2.8,14.3z M5.9,14.3c-0.6,0-1.1-0.5-1.1-1.1
		c0-0.6,0.5-1.1,1.1-1.1S7,12.6,7,13.2C7,13.8,6.5,14.3,5.9,14.3z"/>
	<path style="fill:none;stroke:#FFFFFF;stroke-miterlimit:10;" d="M2.8,4.8l2.8,2.8c0.3,0.3,0.9,0.3,1.2,0l7.2-7.2"/>
</g>
</svg>
