<?xml version="1.0" encoding="utf-8"?>
<svg version="1.1" xmlns="http://www.w3.org/2000/svg" xmlns:xlink="http://www.w3.org/1999/xlink" x="0px" y="0px"
	 viewBox="0 0 16 16" style="enable-background:new 0 0 16 16;" xml:space="preserve">
<g id="BG3">
</g>
<g id="BG2">
</g>
<g id="BG1">
</g>
<g id="artwork">
	<g>
		<path style="fill:#FFFFFF;" d="M0.7,10.5c-0.4,0-0.6,0.3-0.6,0.6V16h15.2c0.4,0,0.6-0.3,0.6-0.6v-4.8H0.7z M2.8,14.3
			c-0.6,0-1.1-0.5-1.1-1.1s0.5-1.1,1.1-1.1s1.1,0.5,1.1,1.1S3.4,14.3,2.8,14.3z M6,14.3c-0.6,0-1.1-0.5-1.1-1.1s0.5-1.1,1.1-1.1
			S7,12.6,7,13.2S6.6,14.3,6,14.3z"/>
		<line style="fill:none;stroke:#FFFFFF;stroke-linejoin:round;stroke-miterlimit:10;" x1="8" y1="0" x2="8" y2="8.9"/>
		<polyline style="fill:none;stroke:#FFFFFF;stroke-linejoin:round;stroke-miterlimit:10;" points="12.2,4.6 8,8.9 3.8,4.6 		"/>
	</g>
</g>
</svg>
