<?xml version="1.0" encoding="utf-8"?>

<svg version="1.1" xmlns="http://www.w3.org/2000/svg" xmlns:xlink="http://www.w3.org/1999/xlink" x="0px" y="0px"
	 viewBox="0 0 16 16" style="enable-background:new 0 0 16 16;" xml:space="preserve">
<g id="artwork">
	<g>
		<path style="fill:#FFFFFF;" d="M0.7,10c-0.4,0-0.6,0.3-0.6,0.6v4.8h15.2c0.4,0,0.6-0.3,0.6-0.6V10H0.7z M2.8,13.8
			c-0.6,0-1.1-0.5-1.1-1.1s0.5-1.1,1.1-1.1s1.1,0.5,1.1,1.1S3.4,13.8,2.8,13.8z M6,13.8c-0.6,0-1.1-0.5-1.1-1.1s0.5-1.1,1.1-1.1
			S7,12.2,7,12.8S6.6,13.8,6,13.8z"/>
		<path style="fill:none;stroke:#FFFFFF;stroke-miterlimit:10;" d="M2.8,4.8l2.8,2.8c0.3,0.3,0.8,0.3,1.2,0l7.1-7.1"/>
	</g>
	<rect style="fill:none;" width="16" height="16"/>
</g>
</svg>
