<?xml version="1.0" encoding="utf-8"?>
<!-- Generator: Adobe Illustrator 26.0.0, SVG Export Plug-In . SVG Version: 6.00 Build 0)  -->
<svg version="1.1" id="artwork" xmlns="http://www.w3.org/2000/svg" xmlns:xlink="http://www.w3.org/1999/xlink" x="0px" y="0px"
	 viewBox="0 0 16 16" style="enable-background:new 0 0 16 16;" xml:space="preserve">
<g>
	<path style="fill:#FFFFFF;" d="M0.7,10.5c-0.4,0-0.7,0.3-0.7,0.7V16h15.2c0.4,0,0.7-0.3,0.7-0.7v-4.9H0.7z M2.8,14.3
		c-0.6,0-1.1-0.5-1.1-1.1s0.5-1.1,1.1-1.1s1.1,0.5,1.1,1.1S3.4,14.3,2.8,14.3z M6,14.3c-0.6,0-1.1-0.5-1.1-1.1s0.5-1.1,1.1-1.1
		S7,12.7,7,13.2S6.5,14.3,6,14.3z"/>
	<line style="fill:none;stroke:#FFFFFF;stroke-linejoin:round;stroke-miterlimit:10;" x1="8" y1="0" x2="8" y2="8.4"/>
	<polyline style="fill:none;stroke:#FFFFFF;stroke-linejoin:round;stroke-miterlimit:10;" points="12.3,4.2 8,8.4 3.7,4.2 	"/>
</g>
</svg>
