

<svg version="1.1" xmlns="http://www.w3.org/2000/svg" xmlns:xlink="http://www.w3.org/1999/xlink" x="0px" y="0px"
	 viewBox="0 0 16 16"  xml:space="preserve">
<g id="artwork">
	<g>
		<path style="fill:#FFFFFF;" d="M0.8,10.4c-0.4,0-0.6,0.3-0.6,0.6v4.8h15.2c0.4,0,0.6-0.3,0.6-0.6v-4.8H0.8z M2.9,14.2
			c-0.6,0-1.1-0.5-1.1-1.1s0.5-1.1,1.1-1.1S4,12.6,4,13.2S3.5,14.2,2.9,14.2z M6.1,14.2c-0.6,0-1.1-0.5-1.1-1.1s0.5-1.1,1.1-1.1
			s1.1,0.5,1.1,1.1S6.6,14.2,6.1,14.2z"/>
		<line style="fill:none;stroke:#FFFFFF;stroke-linejoin:round;stroke-miterlimit:10;" x1="8.1" y1="0" x2="8.1" y2="8.8"/>
		<polyline style="fill:none;stroke:#FFFFFF;stroke-linejoin:round;stroke-miterlimit:10;" points="12.3,4.6 8.1,8.8 3.8,4.6 		"/>
	</g>
</g>
</svg>
