<?xml version="1.0" encoding="utf-8"?>
<!-- Generator: Adobe Illustrator 26.0.0, SVG Export Plug-In . SVG Version: 6.00 Build 0)  -->
<svg version="1.1" id="artwork" xmlns="http://www.w3.org/2000/svg" xmlns:xlink="http://www.w3.org/1999/xlink" x="0px" y="0px"
	 viewBox="0 0 16 16" style="enable-background:new 0 0 16 16;" xml:space="preserve">
<g>
	<polyline style="fill:none;stroke:#FFFFFF;stroke-linejoin:round;stroke-miterlimit:10;" points="4.4,15.5 4.4,12.4 9.7,12.4 	"/>
	<polyline style="fill:none;stroke:#FFFFFF;stroke-linejoin:round;stroke-miterlimit:10;" points="0.7,15.5 0.7,12.4 2.8,12.4 	"/>
	<path style="fill:#FFFFFF;" d="M11,9.3c-0.7,0-1.3,0.6-1.3,1.3v5h5c0.7,0,1.3-0.6,1.3-1.3v-5H11z M12.9,14.1
		c-0.9,0-1.7-0.8-1.7-1.7c0-0.9,0.8-1.7,1.7-1.7c0.9,0,1.7,0.8,1.7,1.7C14.6,13.3,13.8,14.1,12.9,14.1z"/>
	<polyline style="fill:none;stroke:#FFFFFF;stroke-linejoin:round;stroke-miterlimit:10;" points="11.6,6.7 11.6,3.6 6.3,3.6 	"/>
	<path style="fill:#FFFFFF;" d="M0,0.5l0,5c0,0.7,0.6,1.3,1.3,1.3h5v-5C6.3,1,5.7,0.5,5,0.5H0z M1.4,3.6c0-0.9,0.8-1.7,1.7-1.7
		c0.9,0,1.7,0.8,1.7,1.7c0,0.9-0.8,1.7-1.7,1.7C2.2,5.3,1.4,4.5,1.4,3.6z"/>
	<polyline style="fill:none;stroke:#FFFFFF;stroke-linejoin:round;stroke-miterlimit:10;" points="15.3,6.7 15.3,3.6 13.2,3.6 	"/>
</g>
</svg>
