<?xml version="1.0" encoding="utf-8"?>
<svg version="1.1" xmlns="http://www.w3.org/2000/svg" xmlns:xlink="http://www.w3.org/1999/xlink" x="0px" y="0px"
	 viewBox="0 0 16 16" style="enable-background:new 0 0 16 16;" xml:space="preserve">
<g id="BG3">
</g>
<g id="BG2">
</g>
<g id="BG1">
</g>
<g id="artwork">
	<g>
		<polyline style="fill:none;stroke:#FFFFFF;stroke-linejoin:round;stroke-miterlimit:10;" points="4.5,15.4 4.5,12.3 9.7,12.3 		
			"/>
		<polyline style="fill:none;stroke:#FFFFFF;stroke-linejoin:round;stroke-miterlimit:10;" points="0.8,15.4 0.8,12.3 2.9,12.3 		
			"/>
		<path style="fill:#FFFFFF;" d="M11,9.3c-0.7,0-1.3,0.6-1.3,1.3v4.9h4.9c0.7,0,1.3-0.6,1.3-1.3V9.3H11z M12.8,14
			c-0.9,0-1.7-0.7-1.7-1.7c0-0.9,0.7-1.7,1.7-1.7c0.9,0,1.7,0.7,1.7,1.7C14.4,13.2,13.7,14,12.8,14z"/>
		<polyline style="fill:none;stroke:#FFFFFF;stroke-linejoin:round;stroke-miterlimit:10;" points="11.5,6.7 11.5,3.7 6.3,3.7 		"/>
		<path style="fill:#FFFFFF;" d="M0.1,0.6v4.9c0,0.7,0.6,1.3,1.3,1.3h4.9V1.9c0-0.7-0.6-1.3-1.3-1.3H0.1z M1.6,3.7
			C1.6,2.8,2.3,2,3.2,2c0.9,0,1.7,0.7,1.7,1.7c0,0.9-0.7,1.7-1.7,1.7C2.3,5.3,1.6,4.6,1.6,3.7z"/>
		<polyline style="fill:none;stroke:#FFFFFF;stroke-linejoin:round;stroke-miterlimit:10;" points="15.2,6.7 15.2,3.7 13.1,3.7 		
			"/>
	</g>
</g>
</svg>
