<?xml version="1.0" encoding="utf-8"?>

<svg version="1.1" xmlns="http://www.w3.org/2000/svg" xmlns:xlink="http://www.w3.org/1999/xlink" x="0px" y="0px"
	 viewBox="0 0 16 16" style="enable-background:new 0 0 16 16;" xml:space="preserve">
<g id="artwork">
	<path style="fill:#FFFFFF;" d="M11.4,0.5C9,0.5,7.2,2.3,7.2,4.7S9,8.9,11.4,8.9s4.2-1.9,4.2-4.2S13.7,0.5,11.4,0.5z M11.4,6.2
		c-0.8,0-1.5-0.7-1.5-1.5s0.7-1.5,1.5-1.5s1.5,0.7,1.5,1.5S12.2,6.2,11.4,6.2z"/>
	<path style="fill:none;stroke:#FFFFFF;stroke-miterlimit:10;" d="M5.2,11.8l-0.5,2.6C4.6,14.7,4.2,15,3.9,15l-1.1-0.1"/>
	<path style="fill:none;stroke:#FFFFFF;stroke-miterlimit:10;" d="M8.6,8.9l-0.5,2.6c-0.1,0.4-0.4,0.6-0.8,0.6L6.2,12"/>
	<path style="fill:none;stroke:#FFFFFF;stroke-miterlimit:10;" d="M1.5,15.5l-0.3-3.1c0-0.2,0.1-0.4,0.2-0.6l5.5-5.5"/>
</g>
</svg>
