<?xml version="1.0" encoding="utf-8"?>
<!-- Generator: Adobe Illustrator 26.0.0, SVG Export Plug-In . SVG Version: 6.00 Build 0)  -->
<svg version="1.1" id="artwork" xmlns="http://www.w3.org/2000/svg" xmlns:xlink="http://www.w3.org/1999/xlink" x="0px" y="0px"
	 viewBox="0 0 16 16" style="enable-background:new 0 0 16 16;" xml:space="preserve">
<path style="fill:#FFFFFF;" d="M11.6,0.2c-2.4,0-4.4,2-4.4,4.4s2,4.4,4.4,4.4S16,7,16,4.6S14,0.2,11.6,0.2z M11.6,6.1
	c-0.9,0-1.6-0.7-1.6-1.6S10.8,3,11.6,3c0.9,0,1.6,0.7,1.6,1.6S12.5,6.1,11.6,6.1z"/>
<path style="fill:none;stroke:#FFFFFF;stroke-miterlimit:10;" d="M0.5,15.3L1,12.5c0-0.1,0.1-0.2,0.2-0.3l5.1-5.1"/>
<path style="fill:none;stroke:#FFFFFF;stroke-miterlimit:10;" d="M5.3,11.4l-0.6,3.5c-0.1,0.3-0.3,0.5-0.6,0.5L2.2,15"/>
<path style="fill:none;stroke:#FFFFFF;stroke-miterlimit:10;" d="M9,9.6l-0.4,2.3c-0.1,0.3-0.3,0.5-0.6,0.5l-1.2-0.2"/>
</svg>
