<?xml version="1.0" encoding="utf-8"?>
<!-- Generator: Adobe Illustrator 26.0.0, SVG Export Plug-In . SVG Version: 6.00 Build 0)  -->
<svg version="1.1" id="artwork" xmlns="http://www.w3.org/2000/svg" xmlns:xlink="http://www.w3.org/1999/xlink" x="0px" y="0px"
	 viewBox="0 0 16 16" style="enable-background:new 0 0 16 16;" xml:space="preserve">
<g>
	<path style="fill:#FFFFFF;" d="M9.9,10.8l1.2-1.2l3.5,3.5c0.1,0.1,0.1,0.4,0,0.5l-1.2,1.2l-3.5-3.5C9.7,11.2,9.7,11,9.9,10.8z"/>
	<path style="fill:#FFFFFF;" d="M1.4,2.4l1.2-1.2l3.5,3.5c0.1,0.1,0.1,0.4,0,0.5L4.9,6.4L1.4,2.9C1.3,2.8,1.3,2.5,1.4,2.4z"/>
	<path style="fill:#FFFFFF;" d="M10.8,6.1L9.6,4.9l3.5-3.5c0.1-0.1,0.4-0.1,0.5,0l1.2,1.2l-3.5,3.5C11.2,6.3,11,6.3,10.8,6.1z"/>
	<path style="fill:#FFFFFF;" d="M2.6,14.9l-1.2-1.2c-0.1-0.1-0.1-0.4,0-0.5l3.5-3.5l1.2,1.2c0.1,0.1,0.1,0.4,0,0.5L2.6,14.9z"/>
	<g>
		<path style="fill:none;stroke:#FFFFFF;stroke-miterlimit:10;" d="M13.8,12.7c1.7-2.1,2.2-4.9,1.1-7.5"/>
		<path style="fill:none;stroke:#FFFFFF;stroke-miterlimit:10;" d="M3.4,13.9c2.1,1.6,4.9,2.1,7.4,1"/>
		<path style="fill:none;stroke:#FFFFFF;stroke-miterlimit:10;" d="M2.1,3.4c-1.6,2.1-2.1,4.9-1,7.4"/>
		<path style="fill:none;stroke:#FFFFFF;stroke-miterlimit:10;" d="M12.6,2.1c-2.1-1.6-4.9-2.1-7.4-1"/>
	</g>
	<g>
		<path style="fill:none;stroke:#FFFFFF;stroke-miterlimit:10;" d="M10.7,11.4c-1.6,1.2-3.8,1.2-5.3,0"/>
		<path style="fill:none;stroke:#FFFFFF;stroke-miterlimit:10;" d="M11.4,5.3c1.2,1.6,1.2,3.8,0,5.3"/>
		<path style="fill:none;stroke:#FFFFFF;stroke-miterlimit:10;" d="M5.3,4.6c1.6-1.2,3.8-1.2,5.3,0"/>
		<path style="fill:none;stroke:#FFFFFF;stroke-miterlimit:10;" d="M4.6,10.7c-1.2-1.6-1.2-3.8,0-5.3"/>
	</g>
</g>
</svg>
