<?xml version="1.0" encoding="utf-8"?>

<svg version="1.1" xmlns="http://www.w3.org/2000/svg" xmlns:xlink="http://www.w3.org/1999/xlink" x="0px" y="0px"
	 viewBox="0 0 16 16" style="enable-background:new 0 0 16 16;" xml:space="preserve">
<g id="artwork">
	<g>
		<line style="fill:none;stroke:#FFFFFF;stroke-miterlimit:10;" x1="6.4" y1="2.3" x2="14.5" y2="2.3"/>
		<line style="fill:none;stroke:#FFFFFF;stroke-miterlimit:10;" x1="6.4" y1="8" x2="14.5" y2="8"/>
		<line style="fill:none;stroke:#FFFFFF;stroke-miterlimit:10;" x1="6.4" y1="13.7" x2="14.5" y2="13.7"/>
		<path style="fill:#FFFFFF;" d="M2.9,3.6C2.2,3.6,1.5,3,1.5,2.3c0-0.8,0.6-1.4,1.4-1.4c0.8,0,1.4,0.6,1.4,1.4
			C4.3,3,3.7,3.6,2.9,3.6z"/>
		<path style="fill:#FFFFFF;" d="M2.9,9.4C2.2,9.4,1.5,8.8,1.5,8c0-0.8,0.6-1.4,1.4-1.4c0.8,0,1.4,0.6,1.4,1.4
			C4.3,8.8,3.7,9.4,2.9,9.4z"/>
		<path style="fill:#FFFFFF;" d="M2.9,15.1c-0.8,0-1.4-0.6-1.4-1.4c0-0.8,0.6-1.4,1.4-1.4c0.8,0,1.4,0.6,1.4,1.4
			C4.3,14.5,3.7,15.1,2.9,15.1z"/>
	</g>
	<rect style="fill:none;" width="16" height="16"/>
</g>
</svg>
