<?xml version="1.0" encoding="utf-8"?>
<!-- Generator: Adobe Illustrator 26.0.0, SVG Export Plug-In . SVG Version: 6.00 Build 0)  -->
<svg version="1.1" id="artwork" xmlns="http://www.w3.org/2000/svg" xmlns:xlink="http://www.w3.org/1999/xlink" x="0px" y="0px"
	 viewBox="0 0 16 16" style="enable-background:new 0 0 16 16;" xml:space="preserve">
<g>
	<line style="fill:none;stroke:#FFFFFF;stroke-miterlimit:10;" x1="5.7" y1="1.6" x2="16" y2="1.6"/>
	<line style="fill:none;stroke:#FFFFFF;stroke-miterlimit:10;" x1="5.7" y1="8" x2="16" y2="8"/>
	<line style="fill:none;stroke:#FFFFFF;stroke-miterlimit:10;" x1="5.7" y1="14.4" x2="16" y2="14.4"/>
	<path style="fill:#FFFFFF;" d="M1.6,3.1C0.7,3.1,0,2.4,0,1.6C0,0.7,0.7,0,1.6,0c0.9,0,1.6,0.7,1.6,1.6C3.1,2.4,2.4,3.1,1.6,3.1z"/>
	<path style="fill:#FFFFFF;" d="M1.6,9.6C0.7,9.6,0,8.9,0,8c0-0.9,0.7-1.6,1.6-1.6c0.9,0,1.6,0.7,1.6,1.6C3.1,8.9,2.4,9.6,1.6,9.6z"
		/>
	<path style="fill:#FFFFFF;" d="M1.6,16C0.7,16,0,15.3,0,14.4c0-0.9,0.7-1.6,1.6-1.6c0.9,0,1.6,0.7,1.6,1.6C3.1,15.3,2.4,16,1.6,16z
		"/>
</g>
</svg>
