<?xml version="1.0" encoding="utf-8"?>
<svg version="1.1" xmlns="http://www.w3.org/2000/svg" xmlns:xlink="http://www.w3.org/1999/xlink" x="0px" y="0px"
	 viewBox="0 0 16 16" style="enable-background:new 0 0 16 16;" xml:space="preserve">
<g id="BG3">
</g>
<g id="BG2">
</g>
<g id="BG1">
</g>
<g id="artwork">
	<g>
		<g>
			<line style="fill:none;stroke:#FFFFFF;stroke-miterlimit:10;" x1="2.2" y1="7.3" x2="2.2" y2="9.4"/>
			<line style="fill:none;stroke:#FFFFFF;stroke-miterlimit:10;" x1="13.8" y1="7.3" x2="13.8" y2="9.4"/>
			<path style="fill:none;stroke:#FFFFFF;stroke-miterlimit:10;" d="M0.7,12.7v-2.7c0-0.4,0.3-0.7,0.7-0.7h14.1"/>
			<path style="fill:none;stroke:#FFFFFF;stroke-miterlimit:10;" d="M15.2,12.1v2.6c0,0.4-0.3,0.7-0.7,0.7H0.5"/>
			<path style="fill:#FFFFFF;" d="M0.5,1.1l0,2.5c0,1.3,0.9,2.5,2.2,2.6c1.5,0.1,2.7-1,2.7-2.5c0,1.4,1.1,2.5,2.5,2.5
				c1.4,0,2.5-1.1,2.5-2.5c0,1.5,1.3,2.6,2.7,2.5c1.3-0.1,2.2-1.3,2.2-2.6V1.1c0-0.5-0.4-0.9-0.9-0.9h-13C1,0.2,0.5,0.6,0.5,1.1z"/>
		</g>
	</g>
</g>
</svg>
