

<svg version="1.1" xmlns="http://www.w3.org/2000/svg" xmlns:xlink="http://www.w3.org/1999/xlink" x="0px" y="0px"
	 viewBox="0 0 16 16"  xml:space="preserve">
<g id="artwork">
	<g>
		<path style="fill:#FFFFFF;" d="M0.4,0.6v3.5h15.2V0.6H0.4z M2.6,3.2c-0.4,0-0.8-0.3-0.8-0.8s0.3-0.8,0.8-0.8C3,1.6,3.4,2,3.4,2.4
			S3,3.2,2.6,3.2z"/>
		<path style="fill:#FFFFFF;" d="M0.4,6.2v3.5h15.2V6.2H0.4z M2.6,8.8C2.2,8.8,1.8,8.4,1.8,8c0-0.4,0.3-0.8,0.8-0.8
			C3,7.2,3.4,7.6,3.4,8C3.4,8.4,3,8.8,2.6,8.8z"/>
		<path style="fill:#FFFFFF;" d="M0.4,11.9v3.5h15.2v-3.5H0.4z M2.6,14.4c-0.4,0-0.8-0.3-0.8-0.8s0.3-0.8,0.8-0.8
			c0.4,0,0.8,0.3,0.8,0.8S3,14.4,2.6,14.4z"/>
		<line style="fill:none;stroke:#FFFFFF;stroke-miterlimit:10;" x1="11.4" y1="2.5" x2="13.9" y2="2.5"/>
		<line style="fill:none;stroke:#FFFFFF;stroke-miterlimit:10;" x1="11.4" y1="8" x2="13.9" y2="8"/>
		<line style="fill:none;stroke:#FFFFFF;stroke-miterlimit:10;" x1="11.4" y1="13.6" x2="13.9" y2="13.6"/>
	</g>
</g>
</svg>
