<?xml version="1.0" encoding="utf-8"?>
<svg version="1.1" xmlns="http://www.w3.org/2000/svg" xmlns:xlink="http://www.w3.org/1999/xlink" x="0px" y="0px"
	 viewBox="0 0 16 16" style="enable-background:new 0 0 16 16;" xml:space="preserve">
<g id="BG3">
</g>
<g id="BG2">
</g>
<g id="BG1">
</g>
<g id="artwork">
	<path style="fill:none;stroke:#FFFFFF;stroke-miterlimit:10;" d="M0.6,14.8v-6C0.6,8.3,1,8,1.4,8h4"/>
	<path style="fill:none;stroke:#FFFFFF;stroke-miterlimit:10;" d="M4.3,6.6V2.4C4.3,2,4.6,1.7,5,1.7h7.3"/>
	<line style="fill:none;stroke:#FFFFFF;stroke-miterlimit:10;" x1="7.9" y1="2.9" x2="7.9" y2="4.5"/>
	<line style="fill:none;stroke:#FFFFFF;stroke-miterlimit:10;" x1="4.3" y1="9.2" x2="4.3" y2="10.8"/>
	<line style="fill:none;stroke:#FFFFFF;stroke-miterlimit:10;" x1="11.6" y1="9.2" x2="11.6" y2="10.8"/>
	<path style="fill:none;stroke:#FFFFFF;stroke-miterlimit:10;" d="M11.8,3v4.2C11.8,7.7,11.5,8,11,8H6.4"/>
	<path style="fill:none;stroke:#FFFFFF;stroke-miterlimit:10;" d="M8,9.4v4.2c0,0.4-0.3,0.8-0.8,0.8H2"/>
	<path style="fill:none;stroke:#FFFFFF;stroke-miterlimit:10;" d="M13.1,8h2.3v5.6c0,0.4-0.3,0.8-0.8,0.8H9.4"/>
</g>
</svg>
