<?xml version="1.0" encoding="utf-8"?>
<!-- Generator: Adobe Illustrator 26.0.0, SVG Export Plug-In . SVG Version: 6.00 Build 0)  -->
<svg version="1.1" id="artwork" xmlns="http://www.w3.org/2000/svg" xmlns:xlink="http://www.w3.org/1999/xlink" x="0px" y="0px"
	 viewBox="0 0 16 16" style="enable-background:new 0 0 16 16;" xml:space="preserve">
<path style="fill:none;stroke:#FFFFFF;stroke-miterlimit:10;" d="M0.5,16V8.7C0.5,8.3,0.8,8,1.2,8h3.5"/>
<path style="fill:none;stroke:#FFFFFF;stroke-miterlimit:10;" d="M4.2,6.3v-5c0-0.4,0.3-0.7,0.7-0.7h7.4"/>
<line style="fill:none;stroke:#FFFFFF;stroke-miterlimit:10;" x1="8" y1="2" x2="8" y2="4.3"/>
<line style="fill:none;stroke:#FFFFFF;stroke-miterlimit:10;" x1="4.2" y1="9.5" x2="4.2" y2="11.8"/>
<line style="fill:none;stroke:#FFFFFF;stroke-miterlimit:10;" x1="11.7" y1="9.5" x2="11.7" y2="11.8"/>
<path style="fill:none;stroke:#FFFFFF;stroke-miterlimit:10;" d="M11.9,2.5v4.7c0,0.4-0.3,0.7-0.7,0.7H6.7"/>
<path style="fill:none;stroke:#FFFFFF;stroke-miterlimit:10;" d="M8,10v4.7c0,0.4-0.3,0.7-0.7,0.7H2.5"/>
<path style="fill:none;stroke:#FFFFFF;stroke-miterlimit:10;" d="M13.9,8h1.6v6.7c0,0.4-0.3,0.7-0.7,0.7H10"/>
</svg>
