

<svg version="1.1" xmlns="http://www.w3.org/2000/svg" xmlns:xlink="http://www.w3.org/1999/xlink" x="0px" y="0px"
	 viewBox="0 0 16 16"  xml:space="preserve">
<g id="artwork">
	<g>
		<path style="fill:none;stroke:#FFFFFF;stroke-miterlimit:10;" d="M4.6,9.9V2.7c0-0.8,0.6-1.4,1.4-1.4h4c0.8,0,1.4,0.6,1.4,1.4v2.5
			"/>
		<path style="fill:#FFFFFF;" d="M14,6.7H3.2C2.6,6.7,2,7.2,2,7.9v8h10.7c0.7,0,1.2-0.5,1.2-1.2V6.7z M8.8,9.9v2.7
			c0,0.1-0.1,0.1-0.1,0.1H7.9v0.6H7.2v-0.6V10c0-0.1,0.1-0.1,0.1-0.1h0.8V9.2h0.7V9.9z"/>
	</g>
</g>
</svg>
