<?xml version="1.0" encoding="utf-8"?>
<!-- Generator: Adobe Illustrator 26.0.0, SVG Export Plug-In . SVG Version: 6.00 Build 0)  -->
<svg version="1.1" id="artwork" xmlns="http://www.w3.org/2000/svg" xmlns:xlink="http://www.w3.org/1999/xlink" x="0px" y="0px"
	 viewBox="0 0 16 16" style="enable-background:new 0 0 16 16;" xml:space="preserve">
<g>
	<path style="fill:none;stroke:#FFFFFF;stroke-miterlimit:10;" d="M3.3,13.6H0.5V6c0-0.2,0.2-0.4,0.4-0.4h2.8v7.5
		C3.7,13.4,3.5,13.6,3.3,13.6z"/>
	<path style="fill:none;stroke:#FFFFFF;stroke-miterlimit:10;" d="M9.2,13.6H6.4V6c0-0.2,0.2-0.4,0.4-0.4h2.8v7.5
		C9.6,13.4,9.4,13.6,9.2,13.6z"/>
	<path style="fill:none;stroke:#FFFFFF;stroke-miterlimit:10;" d="M15,13.6h-2.8V6c0-0.2,0.2-0.4,0.4-0.4h2.8v7.5
		C15.5,13.4,15.3,13.6,15,13.6z"/>
	<line style="fill:none;stroke:#FFFFFF;stroke-miterlimit:10;" x1="3.7" y1="2.4" x2="12.3" y2="2.4"/>
</g>
</svg>
