<?xml version="1.0" encoding="utf-8"?>
<svg version="1.1" xmlns="http://www.w3.org/2000/svg" xmlns:xlink="http://www.w3.org/1999/xlink" x="0px" y="0px"
	 viewBox="0 0 16 16" style="enable-background:new 0 0 16 16;" xml:space="preserve">
<g id="BG3">
</g>
<g id="BG2">
</g>
<g id="BG1">
</g>
<g id="artwork">
	<g>
		<path style="fill:none;stroke:#FFFFFF;stroke-miterlimit:10;" d="M3.7,13.3H0.5V6.4c0-0.3,0.2-0.5,0.5-0.5h3.2v6.9
			C4.2,13.1,4,13.3,3.7,13.3z"/>
		<path style="fill:none;stroke:#FFFFFF;stroke-miterlimit:10;" d="M9.4,13.3H6.2V6.4c0-0.3,0.2-0.5,0.5-0.5h3.2v6.9
			C9.8,13.1,9.6,13.3,9.4,13.3z"/>
		<path style="fill:none;stroke:#FFFFFF;stroke-miterlimit:10;" d="M15,13.3h-3.2V6.4c0-0.3,0.2-0.5,0.5-0.5h3.2v6.9
			C15.4,13.1,15.2,13.3,15,13.3z"/>
		<line style="fill:none;stroke:#FFFFFF;stroke-miterlimit:10;" x1="3.7" y1="2.7" x2="12.3" y2="2.7"/>
	</g>
</g>
</svg>
