<?xml version="1.0" encoding="utf-8"?>
<svg version="1.1" xmlns="http://www.w3.org/2000/svg" xmlns:xlink="http://www.w3.org/1999/xlink" x="0px" y="0px"
	 viewBox="0 0 16 16" style="enable-background:new 0 0 16 16;" xml:space="preserve">
<g id="BG3">
</g>
<g id="BG2">
</g>
<g id="BG1">
</g>
<g id="artwork">
	<path style="fill:none;stroke:#FFFFFF;stroke-miterlimit:10;" d="M1.3,4.5V2.4c0-0.5,0.4-1,1-1h6.4"/>
	<path style="fill:none;stroke:#FFFFFF;stroke-miterlimit:10;" d="M8.3,3V5c0,0.5-0.4,1-1,1H0.8"/>
	<path style="fill:none;stroke:#FFFFFF;stroke-miterlimit:10;" d="M8.3,7.2v0.7c0,0.5-0.4,1-1,1H0.8"/>
	<path style="fill:none;stroke:#FFFFFF;stroke-miterlimit:10;" d="M8.3,10v0.7c0,0.5-0.4,1-1,1H0.8"/>
	<path style="fill:none;stroke:#FFFFFF;stroke-miterlimit:10;" d="M8.3,12.8v0.7c0,0.5-0.4,1-1,1H0.8"/>
	<path style="fill:#FFFFFF;" d="M14.4,6.7h-3V2.2c0-0.4,0.4-0.8,0.8-0.8h3v4.5C15.2,6.4,14.8,6.7,14.4,6.7z"/>
	<line style="fill:none;stroke:#FFFFFF;stroke-miterlimit:10;" x1="8.3" y1="4.3" x2="11.4" y2="4.3"/>
</g>
</svg>
