

<svg version="1.1" xmlns="http://www.w3.org/2000/svg" xmlns:xlink="http://www.w3.org/1999/xlink" x="0px" y="0px"
	 viewBox="0 0 16 16"  xml:space="preserve">
<g id="artwork">
	<g>
		<polyline style="fill:none;stroke:#FFFFFF;stroke-linejoin:round;stroke-miterlimit:10;" points="4.6,15.6 4.6,12.6 9.9,12.6 		
			"/>
		<polyline style="fill:none;stroke:#FFFFFF;stroke-linejoin:round;stroke-miterlimit:10;" points="1,15.6 1,12.6 2.4,12.6 		"/>
		<path style="fill:#FFFFFF;" d="M11.1,9.5c-0.7,0-1.3,0.6-1.3,1.3v4.9h4.9c0.7,0,1.3-0.6,1.3-1.3V9.5H11.1z M12.9,14.2
			c-0.9,0-1.7-0.7-1.7-1.7c0-0.9,0.7-1.7,1.7-1.7c0.9,0,1.7,0.7,1.7,1.7C14.6,13.5,13.8,14.2,12.9,14.2z"/>
		<polyline style="fill:none;stroke:#FFFFFF;stroke-linejoin:round;stroke-miterlimit:10;" points="11.7,7 11.7,3.9 6.4,3.9 		"/>
		<polyline style="fill:none;stroke:#FFFFFF;stroke-linejoin:round;stroke-miterlimit:10;" points="15.3,7 15.3,3.9 13.9,3.9 		"/>
		<path style="fill:#FFFFFF;" d="M0.3,0.8v4.9C0.3,6.4,0.9,7,1.6,7h4.9V2.1c0-0.7-0.6-1.3-1.3-1.3H0.3z M1.7,3.9
			c0-0.9,0.7-1.7,1.7-1.7C4.3,2.2,5,3,5,3.9c0,0.9-0.7,1.7-1.7,1.7C2.4,5.6,1.7,4.8,1.7,3.9z"/>
	</g>
</g>
</svg>
