

<svg version="1.1" xmlns="http://www.w3.org/2000/svg" xmlns:xlink="http://www.w3.org/1999/xlink" x="0px" y="0px"
	 viewBox="0 0 16 16"  xml:space="preserve">
<g id="artwork">
	<g>
		<g>
			<line style="fill:none;stroke:#FFFFFF;stroke-miterlimit:10;" x1="2.2" y1="7.2" x2="2.2" y2="9.2"/>
			<line style="fill:none;stroke:#FFFFFF;stroke-miterlimit:10;" x1="13.8" y1="7.2" x2="13.8" y2="9.2"/>
			<path style="fill:none;stroke:#FFFFFF;stroke-miterlimit:10;" d="M0.7,12.6V9.9c0-0.4,0.3-0.7,0.7-0.7h14.1"/>
			<path style="fill:none;stroke:#FFFFFF;stroke-miterlimit:10;" d="M15.2,11.9v2.6c0,0.4-0.3,0.7-0.7,0.7H0.5"/>
			<path style="fill:#FFFFFF;" d="M0.5,0.9l0,2.5c0,1.3,0.9,2.5,2.2,2.6c1.5,0.1,2.7-1,2.7-2.5C5.5,5,6.6,6.1,8,6.1
				c1.4,0,2.5-1.1,2.5-2.5c0,1.5,1.3,2.6,2.7,2.5c1.3-0.1,2.2-1.3,2.2-2.6l0-2.5C15.4,0.4,15,0,14.5,0h-13C1,0,0.5,0.4,0.5,0.9z"/>
		</g>
	</g>
</g>
</svg>
