

<svg version="1.1" xmlns="http://www.w3.org/2000/svg" xmlns:xlink="http://www.w3.org/1999/xlink" x="0px" y="0px"
	 viewBox="0 0 16 16"  xml:space="preserve">
<g id="artwork">
	<g>
		
			<rect x="11" y="9.5" transform="matrix(-0.7071 0.7071 -0.7071 -0.7071 28.9916 12.0088)" style="fill:#FFFFFF;" width="2" height="5"/>
		
			<rect x="3" y="1.5" transform="matrix(-0.7071 0.7071 -0.7071 -0.7071 9.6358 3.9913)" style="fill:#FFFFFF;" width="2" height="5"/>
		
			<rect x="11" y="1.5" transform="matrix(0.7071 0.7071 -0.7071 0.7071 6.3395 -7.3224)" style="fill:#FFFFFF;" width="2" height="5"/>
		<rect x="3" y="9.5" transform="matrix(0.7071 0.7071 -0.7071 0.7071 9.6605 0.695)" style="fill:#FFFFFF;" width="2" height="5"/>
		<path style="fill:none;stroke:#FFFFFF;stroke-miterlimit:10;" d="M13.4,12.6c2.3-2.7,2.3-6.6,0-9.3"/>
		<path style="fill:none;stroke:#FFFFFF;stroke-miterlimit:10;" d="M3.4,13.4c2.7,2.3,6.6,2.3,9.3,0"/>
		<path style="fill:none;stroke:#FFFFFF;stroke-miterlimit:10;" d="M2.6,3.4C0.3,6,0.3,10,2.6,12.6"/>
		<path style="fill:none;stroke:#FFFFFF;stroke-miterlimit:10;" d="M12.6,2.6C10,0.3,6,0.3,3.4,2.6"/>
		<path style="fill:none;stroke:#FFFFFF;stroke-miterlimit:10;" d="M10.7,11.4c-1.6,1.2-3.8,1.2-5.4,0"/>
		<path style="fill:none;stroke:#FFFFFF;stroke-miterlimit:10;" d="M11.4,5.3c1.2,1.6,1.2,3.8,0,5.4"/>
		<path style="fill:none;stroke:#FFFFFF;stroke-miterlimit:10;" d="M5.3,4.6c1.6-1.2,3.8-1.2,5.4,0"/>
		<path style="fill:none;stroke:#FFFFFF;stroke-miterlimit:10;" d="M4.6,10.7c-1.2-1.6-1.2-3.8,0-5.4"/>
	</g>
</g>
</svg>
