<?xml version="1.0" encoding="utf-8"?>
<!-- Generator: Adobe Illustrator 26.0.0, SVG Export Plug-In . SVG Version: 6.00 Build 0)  -->
<svg version="1.1" id="artwork" xmlns="http://www.w3.org/2000/svg" xmlns:xlink="http://www.w3.org/1999/xlink" x="0px" y="0px"
	 viewBox="0 0 16 16" style="enable-background:new 0 0 16 16;" xml:space="preserve">
<g>
	<path style="fill:none;stroke:#FFFFFF;stroke-miterlimit:10;" d="M15.5,1.3l-0.6,4.1c-0.2,1-0.8,1.9-1.7,2.4l-2.5,1.3L9.6,9.6"/>
	<path style="fill:none;stroke:#FFFFFF;stroke-miterlimit:10;" d="M13.2,1.7l-1.8,0.3c-1,0.2-1.9,0.8-2.4,1.7L7.2,7.2"/>
	<circle style="fill:#FFFFFF;" cx="11.9" cy="4.8" r="0.9"/>
	<path style="fill:none;stroke:#FFFFFF;stroke-miterlimit:10;" d="M2.6,8.3l1.1-0.8C4,7.2,4.4,7.1,4.8,7.3l0.6,0.2"/>
	<path style="fill:none;stroke:#FFFFFF;stroke-miterlimit:10;" d="M8.5,14.2l0.8-1.1c0.2-0.3,0.3-0.7,0.2-1.1l-0.2-0.6"/>
	<path style="fill:#FFFFFF;" d="M5.5,11.6l-0.7,0.7L4,11.4c-0.1-0.1-0.2-0.1-0.3,0l-3,3L0,15.1l0.7,0.7l0.7-0.7l0.9,0.9
		c0.1,0.1,0.2,0.1,0.3,0l3-3l0.7-0.7L5.5,11.6z"/>
	<line style="fill:none;stroke:#FFFFFF;stroke-miterlimit:10;" x1="6.6" y1="10.2" x2="8.1" y2="8.7"/>
</g>
</svg>
