<?xml version="1.0" encoding="utf-8"?>
<svg version="1.1" xmlns="http://www.w3.org/2000/svg" xmlns:xlink="http://www.w3.org/1999/xlink" x="0px" y="0px"
	 viewBox="0 0 16 16" style="enable-background:new 0 0 16 16;" xml:space="preserve">
<g id="BG3">
</g>
<g id="BG2">
</g>
<g id="BG1">
</g>
<g id="artwork">
	<path style="fill:none;stroke:#FFFFFF;stroke-miterlimit:10;" d="M15.1,1.3l-0.6,3.9c-0.1,1-0.8,1.8-1.6,2.3l-2.4,1.3l-1,0.5"/>
	<path style="fill:none;stroke:#FFFFFF;stroke-miterlimit:10;" d="M13.5,1.5l-2.3,0.4c-1,0.1-1.8,0.8-2.3,1.6L7.1,6.9"/>
	<circle style="fill:#FFFFFF;" cx="10.9" cy="4.2" r="0.9"/>
	<path style="fill:none;stroke:#FFFFFF;stroke-miterlimit:10;" d="M3.1,7.5l1.1-0.8c0.3-0.2,0.7-0.3,1.1-0.2l0.6,0.2"/>
	<path style="fill:none;stroke:#FFFFFF;stroke-miterlimit:10;" d="M8.9,13.2l0.8-1.1c0.2-0.3,0.3-0.7,0.2-1.1l-0.2-0.6"/>
	<path style="fill:#FFFFFF;" d="M5.5,11.2l-0.7,0.7L4,11C3.9,11,3.7,11,3.7,11l-2.9,2.9l-0.7,0.7l0.7,0.7l0.7-0.7l0.8,0.8
		c0.1,0.1,0.2,0.1,0.3,0l2.9-2.9l0.7-0.7L5.5,11.2z"/>
	<line style="fill:none;stroke:#FFFFFF;stroke-miterlimit:10;" x1="6.5" y1="9.9" x2="8" y2="8.4"/>
</g>
</svg>
