<?xml version="1.0" encoding="utf-8"?>

<svg version="1.1" xmlns="http://www.w3.org/2000/svg" xmlns:xlink="http://www.w3.org/1999/xlink" x="0px" y="0px"
	 viewBox="0 0 16 16" style="enable-background:new 0 0 16 16;" xml:space="preserve">
<g id="artwork">
	<g>
		<path style="fill:#FFFFFF;" d="M1.4,1.4C1.2,1.4,1,1.6,1,1.8v2.7h13.5c0.2,0,0.4-0.2,0.4-0.4V1.4H1.4z M2.7,3.7C2.3,3.7,2,3.4,2,3
			c0-0.4,0.3-0.8,0.8-0.8c0.4,0,0.8,0.3,0.8,0.8C3.5,3.4,3.2,3.7,2.7,3.7z M4.8,3.7C4.3,3.7,4,3.4,4,3c0-0.4,0.3-0.8,0.8-0.8
			c0.4,0,0.8,0.3,0.8,0.8C5.5,3.4,5.2,3.7,4.8,3.7z"/>
		<path style="fill:#FFFFFF;" d="M1.4,6.4C1.2,6.4,1,6.6,1,6.8v2.7h13.5c0.2,0,0.4-0.2,0.4-0.4V6.4H1.4z M2.7,8.8C2.3,8.8,2,8.4,2,8
			c0-0.4,0.3-0.8,0.8-0.8c0.4,0,0.8,0.3,0.8,0.8C3.5,8.4,3.2,8.8,2.7,8.8z M4.8,8.8C4.3,8.8,4,8.4,4,8c0-0.4,0.3-0.8,0.8-0.8
			c0.4,0,0.8,0.3,0.8,0.8C5.5,8.4,5.2,8.8,4.8,8.8z"/>
		<path style="fill:#FFFFFF;" d="M1.4,11.5c-0.2,0-0.4,0.2-0.4,0.4v2.7h13.5c0.2,0,0.4-0.2,0.4-0.4v-2.7H1.4z M2.7,13.8
			C2.3,13.8,2,13.4,2,13c0-0.4,0.3-0.8,0.8-0.8c0.4,0,0.8,0.3,0.8,0.8C3.5,13.4,3.2,13.8,2.7,13.8z M4.8,13.8C4.3,13.8,4,13.4,4,13
			c0-0.4,0.3-0.8,0.8-0.8c0.4,0,0.8,0.3,0.8,0.8C5.5,13.4,5.2,13.8,4.8,13.8z"/>
	</g>
</g>
</svg>
