

<svg version="1.1" xmlns="http://www.w3.org/2000/svg" xmlns:xlink="http://www.w3.org/1999/xlink" x="0px" y="0px"
	 viewBox="0 0 16 16"  xml:space="preserve">
<g id="artwork">
	<g>
		<g>
			<path style="fill:#FFFFFF;" d="M1.4,11.7H0V8.4C0,8.2,0.2,8,0.4,8h1.4v3.3C1.8,11.5,1.7,11.7,1.4,11.7z"/>
			<path style="fill:#FFFFFF;" d="M15.6,11.7h-1.4V8.4c0-0.2,0.2-0.4,0.4-0.4H16v3.3C16,11.5,15.8,11.7,15.6,11.7z"/>
			<line style="fill:none;stroke:#FFFFFF;stroke-miterlimit:10;" x1="8" y1="3" x2="8" y2="5.3"/>
			<circle style="fill:#FFFFFF;" cx="8" cy="1.1" r="1.1"/>
			<path style="fill:none;stroke:#FFFFFF;stroke-miterlimit:10;" d="M3.2,5c-0.5,0-1,0.5-1,1V15h10.6c0.5,0,1-0.5,1-1V5H3.2z"/>
			<line style="fill:none;stroke:#FFFFFF;stroke-miterlimit:10;" x1="5.4" y1="12.5" x2="10.6" y2="12.5"/>
			<path style="fill:#FFFFFF;" d="M5.5,10.2c-0.6,0-1.1-0.5-1.1-1.1S4.9,8,5.5,8s1.1,0.5,1.1,1.1S6.1,10.2,5.5,10.2z"/>
			<path style="fill:#FFFFFF;" d="M10.5,10.2c-0.6,0-1.1-0.5-1.1-1.1S9.9,8,10.5,8s1.1,0.5,1.1,1.1S11.1,10.2,10.5,10.2z"/>
		</g>
	</g>
</g>
</svg>
