<?xml version="1.0" encoding="utf-8"?>
<!-- Generator: Adobe Illustrator 26.0.0, SVG Export Plug-In . SVG Version: 6.00 Build 0)  -->
<svg version="1.1" id="artwork" xmlns="http://www.w3.org/2000/svg" xmlns:xlink="http://www.w3.org/1999/xlink" x="0px" y="0px"
	 viewBox="0 0 16 16" style="enable-background:new 0 0 16 16;" xml:space="preserve">
<path style="fill:#FFFFFF;" d="M0.7,0C0.3,0,0,0.3,0,0.7v2.8h15.3c0.4,0,0.7-0.3,0.7-0.7V0H0.7z M2.2,2.8c-0.6,0-1-0.4-1-1
	c0-0.6,0.4-1,1-1c0.6,0,1,0.4,1,1C3.2,2.3,2.8,2.8,2.2,2.8z M12.5,2.4H6V1.1h6.5V2.4z"/>
<path style="fill:#FFFFFF;" d="M0.7,6.2C0.3,6.2,0,6.6,0,6.9v2.8h15.3c0.4,0,0.7-0.3,0.7-0.7V6.2H0.7z M2.2,9c-0.6,0-1-0.4-1-1
	c0-0.6,0.4-1,1-1c0.6,0,1,0.4,1,1C3.2,8.6,2.8,9,2.2,9z M12.5,8.6H6V7.3h6.5V8.6z"/>
<path style="fill:#FFFFFF;" d="M0.7,12.5c-0.4,0-0.7,0.3-0.7,0.7V16h15.3c0.4,0,0.7-0.3,0.7-0.7v-2.8H0.7z M2.2,15.2
	c-0.6,0-1-0.4-1-1s0.4-1,1-1c0.6,0,1,0.4,1,1S2.8,15.2,2.2,15.2z M12.5,14.9H6v-1.3h6.5V14.9z"/>
</svg>
