<?xml version="1.0" encoding="utf-8"?>
<!-- Generator: Adobe Illustrator 26.0.0, SVG Export Plug-In . SVG Version: 6.00 Build 0)  -->
<svg version="1.1" id="artwork" xmlns="http://www.w3.org/2000/svg" xmlns:xlink="http://www.w3.org/1999/xlink" x="0px" y="0px"
	 viewBox="0 0 16 16" style="enable-background:new 0 0 16 16;" xml:space="preserve">
<g>
	<line style="fill:none;stroke:#FFFFFF;stroke-miterlimit:10;" x1="2.6" y1="15.5" x2="13.4" y2="15.5"/>
	<g>
		<line style="fill:none;stroke:#FFFFFF;stroke-miterlimit:10;" x1="2.1" y1="1.4" x2="4.2" y2="4.3"/>
		<line style="fill:none;stroke:#FFFFFF;stroke-miterlimit:10;" x1="13.9" y1="1.4" x2="11.8" y2="4.3"/>
	</g>
	<line style="fill:none;stroke:#FFFFFF;stroke-miterlimit:10;" x1="8" y1="0.2" x2="8" y2="3.9"/>
	<path style="fill:#FFFFFF;" d="M10.2,6.3H5.8c-1.1,0-1.9,0.9-1.9,1.9V13h8.3V8.2C12.2,7.2,11.3,6.3,10.2,6.3z M8,11.5
		c-0.9,0-1.6-0.7-1.6-1.6c0-0.9,0.7-1.6,1.6-1.6S9.6,9.1,9.6,10C9.6,10.8,8.9,11.5,8,11.5z"/>
</g>
</svg>
