<?xml version="1.0" encoding="utf-8"?>
<!-- Generator: Adobe Illustrator 26.0.0, SVG Export Plug-In . SVG Version: 6.00 Build 0)  -->
<svg version="1.1" id="artwork" xmlns="http://www.w3.org/2000/svg" xmlns:xlink="http://www.w3.org/1999/xlink" x="0px" y="0px"
	 viewBox="0 0 16 16" style="enable-background:new 0 0 16 16;" xml:space="preserve">
<path style="fill:#F2A100;" d="M8,0C3.6,0,0,3.6,0,8s3.6,8,8,8s8-3.6,8-8S12.4,0,8,0z M4.6,8.9C4.1,8.9,3.7,8.5,3.7,8
	c0-0.5,0.4-0.9,0.9-0.9c0.5,0,0.9,0.4,0.9,0.9C5.6,8.5,5.1,8.9,4.6,8.9z M8,8.9C7.5,8.9,7.1,8.5,7.1,8c0-0.5,0.4-0.9,0.9-0.9
	S8.9,7.5,8.9,8C8.9,8.5,8.5,8.9,8,8.9z M11.4,8.9c-0.5,0-0.9-0.4-0.9-0.9c0-0.5,0.4-0.9,0.9-0.9c0.5,0,0.9,0.4,0.9,0.9
	C12.3,8.5,11.9,8.9,11.4,8.9z"/>
</svg>
