<?xml version="1.0" encoding="utf-8"?>
<!-- Generator: Adobe Illustrator 26.0.0, SVG Export Plug-In . SVG Version: 6.00 Build 0)  -->
<svg version="1.1" id="artwork" xmlns="http://www.w3.org/2000/svg" xmlns:xlink="http://www.w3.org/1999/xlink" x="0px" y="0px"
	 viewBox="0 0 16 16" style="enable-background:new 0 0 16 16;" xml:space="preserve">
<path style="fill:none;stroke:#FFFFFF;stroke-miterlimit:10;" d="M0.9,6.1V5c0-0.5,0.4-1,1-1h5.2"/>
<path style="fill:none;stroke:#FFFFFF;stroke-miterlimit:10;" d="M6.6,6.1v1.1c0,0.5-0.4,1-1,1H0.4"/>
<path style="fill:none;stroke:#FFFFFF;stroke-miterlimit:10;" d="M6.6,10.1v0.7c0,0.5-0.4,1-1,1H0.4"/>
<path style="fill:none;stroke:#FFFFFF;stroke-miterlimit:10;" d="M5.4,2.7V1.6c0-0.5,0.4-1,1-1h5.2"/>
<path style="fill:none;stroke:#FFFFFF;stroke-miterlimit:10;" d="M6.6,13.8v0.7c0,0.5-0.4,1-1,1H0.4"/>
<path style="fill:none;stroke:#FFFFFF;stroke-miterlimit:10;" d="M9.4,6.1V5c0-0.5,0.4-1,1-1h5.2"/>
<path style="fill:none;stroke:#FFFFFF;stroke-miterlimit:10;" d="M15.1,6.1v1.1c0,0.5-0.4,1-1,1H8.9"/>
<path style="fill:none;stroke:#FFFFFF;stroke-miterlimit:10;" d="M15.1,10.1v0.7c0,0.5-0.4,1-1,1H8.9"/>
<path style="fill:none;stroke:#FFFFFF;stroke-miterlimit:10;" d="M15.1,13.8v0.7c0,0.5-0.4,1-1,1H8.9"/>
</svg>
