<?xml version="1.0" encoding="utf-8"?>
<svg version="1.1" xmlns="http://www.w3.org/2000/svg" xmlns:xlink="http://www.w3.org/1999/xlink" x="0px" y="0px"
	 viewBox="0 0 16 16" style="enable-background:new 0 0 16 16;" xml:space="preserve">
<g id="BG3">
</g>
<g id="BG2">
</g>
<g id="BG1">
</g>
<g id="artwork">
	<g>
		<g>
			<path style="fill:none;stroke:#FFFFFF;stroke-linejoin:round;stroke-miterlimit:10;" d="M12.4,11.6l-5.8,0c0,1.7-1.4,3-3,3
				s-3-1.4-3-3c0-1.5,1-2.7,2.4-3"/>
			<path style="fill:none;stroke:#FFFFFF;stroke-linejoin:round;stroke-miterlimit:10;" d="M3.6,11.6l2.9-5.1C5,5.7,4.5,3.9,5.4,2.4
				s2.7-1.9,4.1-1.1c1.3,0.7,1.8,2.2,1.4,3.6"/>
			<path style="fill:none;stroke:#FFFFFF;stroke-linejoin:round;stroke-miterlimit:10;" d="M8,3.9l2.9,5c1.4-0.8,3.3-0.3,4.1,1.1
				c0.8,1.4,0.3,3.3-1.1,4.1c-1.3,0.7-2.8,0.4-3.8-0.6"/>
			<path style="fill:#FFFFFF;" d="M12.4,12.6c-0.5,0-1-0.4-1-1s0.4-1,1-1c0.5,0,1,0.4,1,1S13,12.6,12.4,12.6z"/>
			<path style="fill:#FFFFFF;" d="M7.1,3.5C7.4,3,8,2.8,8.5,3.1S9.1,4,8.9,4.4C8.6,4.9,8,5.1,7.5,4.8C7,4.5,6.9,3.9,7.1,3.5z"/>
			<path style="fill:#FFFFFF;" d="M2.7,11.1c0.3-0.5,0.9-0.6,1.3-0.4c0.5,0.3,0.6,0.9,0.4,1.3c-0.3,0.5-0.9,0.6-1.3,0.4
				C2.6,12.2,2.4,11.6,2.7,11.1z"/>
		</g>
	</g>
</g>
</svg>
