

<svg version="1.1" xmlns="http://www.w3.org/2000/svg" xmlns:xlink="http://www.w3.org/1999/xlink" x="0px" y="0px"
	 viewBox="0 0 16 16"  xml:space="preserve">
<g id="artwork">
	<g>
		<path style="fill:none;stroke:#FFFFFF;stroke-linecap:round;stroke-linejoin:round;stroke-miterlimit:10;" d="M11.4,11.6H6.6
			c0,1.7-1.4,3-3,3s-3-1.4-3-3c0-1.5,1-2.7,2.4-3"/>
		<path style="fill:none;stroke:#FFFFFF;stroke-linecap:round;stroke-linejoin:round;stroke-miterlimit:10;" d="M4.1,10.7l2.4-4.2
			C5,5.7,4.5,3.9,5.4,2.4s2.7-1.9,4.1-1.1c1.3,0.7,1.8,2.2,1.4,3.6"/>
		<path style="fill:none;stroke:#FFFFFF;stroke-linecap:round;stroke-linejoin:round;stroke-miterlimit:10;" d="M8.5,4.8L10.9,9
			c1.4-0.8,3.3-0.3,4.1,1.1c0.8,1.4,0.3,3.3-1.1,4.1c-1.3,0.7-2.8,0.4-3.8-0.6"/>
		<path style="fill:#FFFFFF;" d="M12.4,12.8c-0.7,0-1.2-0.6-1.2-1.2s0.6-1.2,1.2-1.2s1.2,0.6,1.2,1.2S13.1,12.8,12.4,12.8z"/>
		<path style="fill:#FFFFFF;" d="M6.9,3.3C7.3,2.7,8,2.5,8.6,2.9S9.4,4,9.1,4.6S8,5.4,7.4,5S6.6,3.9,6.9,3.3z"/>
		<path style="fill:#FFFFFF;" d="M2.5,11c0.3-0.6,1.1-0.8,1.7-0.5s0.8,1.1,0.5,1.7C4.3,12.8,3.5,13,3,12.7S2.2,11.6,2.5,11z"/>
	</g>
</g>
</svg>
