<?xml version="1.0" encoding="utf-8"?>
<!-- Generator: Adobe Illustrator 26.0.0, SVG Export Plug-In . SVG Version: 6.00 Build 0)  -->
<svg version="1.1" id="artwork" xmlns="http://www.w3.org/2000/svg" xmlns:xlink="http://www.w3.org/1999/xlink" x="0px" y="0px"
	 viewBox="0 0 16 16" style="enable-background:new 0 0 16 16;" xml:space="preserve">
<g>
	<path style="fill:#FFFFFF;" d="M12.1,12.6c-0.6,0-1-0.5-1-1c0-0.6,0.5-1,1-1c0.6,0,1,0.5,1,1C13.2,12.2,12.7,12.6,12.1,12.6z"/>
	<path style="fill:none;stroke:#FFFFFF;stroke-miterlimit:10;" d="M12.1,11.6l-4.9,0c0,1.2-0.7,2.3-1.7,2.9C5,14.8,4.4,15,3.8,14.9
		c-0.9,0-1.7-0.4-2.4-1c-0.6-0.6-1-1.5-0.9-2.4c0-1.2,0.7-2.3,1.7-2.9"/>
	<path style="fill:#FFFFFF;" d="M3,11.1c0.3-0.5,0.9-0.7,1.4-0.4s0.7,0.9,0.4,1.4c-0.3,0.5-0.9,0.7-1.4,0.4S2.7,11.6,3,11.1z"/>
	<path style="fill:none;stroke:#FFFFFF;stroke-miterlimit:10;" d="M3.8,11.6l2.5-4.3c-1-0.6-1.7-1.7-1.6-2.9c0-0.6,0.2-1.2,0.5-1.7
		c0.5-0.8,1.2-1.3,2.1-1.5C8,0.9,8.9,1.1,9.7,1.5c1,0.6,1.7,1.7,1.6,2.9"/>
	<path style="fill:#FFFFFF;" d="M8.9,3.9C9.2,4.4,9,5,8.5,5.3C8,5.6,7.4,5.4,7.1,4.9S7,3.8,7.5,3.5S8.6,3.4,8.9,3.9z"/>
	<path style="fill:none;stroke:#FFFFFF;stroke-miterlimit:10;" d="M8,4.4l2.5,4.3c1-0.6,2.3-0.6,3.4,0c0.5,0.3,0.9,0.7,1.2,1.2
		c0.4,0.8,0.5,1.7,0.3,2.6c-0.2,0.9-0.8,1.6-1.6,2c-1,0.6-2.3,0.6-3.4,0"/>
</g>
</svg>
